<svg xmlns="http://www.w3.org/2000/svg" width="880" height="1200" viewBox="0 0 880 1200" version="1.1"><path d="M 116.474 163.250 C 116.879 231.588, 117.319 287.619, 117.453 287.764 C 117.586 287.909, 133.983 288.320, 153.890 288.677 L 190.086 289.326 189.793 280.913 L 189.500 272.500 161 272 L 132.500 271.500 132.500 246 L 132.500 220.500 150.250 220.885 L 168 221.270 168 212.658 L 168 204.046 150.250 203.773 L 132.500 203.500 132.244 129.750 L 131.987 56 160.494 56 L 189 56 189 48.158 L 189 40.316 170.250 39.661 C 159.938 39.301, 143.454 39.004, 133.619 39.003 L 115.738 39 116.474 163.250 M 48.833 42.673 C 47.282 43.084, 47.204 56.949, 47.717 242.307 C 48.019 351.863, 48.362 441.617, 48.477 441.761 C 48.833 442.200, 186.416 443.605, 187.750 443.182 C 188.619 442.907, 189 440.230, 189 434.393 L 189 426 153.662 426 C 134.227 426, 106.029 425.701, 91.002 425.335 C 70.323 424.832, 63.854 424.954, 64.398 425.835 C 64.931 426.697, 79.496 427.028, 120.309 427.109 C 150.664 427.168, 178.200 427.506, 181.500 427.859 L 187.500 428.500 187.500 435 L 187.500 441.500 119 441.130 C 81.325 440.926, 50.115 440.406, 49.645 439.975 C 48.861 439.255, 49.497 203.374, 50.301 196.500 C 50.494 194.850, 50.734 192.375, 50.834 191 C 50.953 189.365, 51.946 188.068, 53.707 187.250 C 58.139 185.192, 58.714 185.648, 59.376 191.750 C 60.344 200.680, 61.866 297.415, 62.014 359.500 C 62.088 390.300, 62.495 417.525, 62.920 420 C 63.344 422.475, 63.469 338.775, 63.198 234 C 62.842 96.839, 62.396 43.294, 61.602 42.765 C 60.437 41.989, 51.657 41.926, 48.833 42.673 M 465 122.798 C 465 144.178, 465.299 192.137, 465.665 229.375 L 466.329 297.081 473.415 296.790 L 480.500 296.500 480.097 251.750 L 479.695 207 499.239 207 C 518.678 207, 518.786 207.012, 519.331 209.250 C 519.632 210.488, 522.626 225.675, 525.984 243 C 529.342 260.325, 533.100 279.675, 534.335 286 L 536.580 297.500 544.790 297.790 C 549.306 297.950, 553 297.923, 553 297.731 C 553 297.538, 551.167 288.632, 548.927 277.940 C 544.163 255.199, 534 204.229, 534 203.077 C 534 202.641, 536.712 200.611, 540.026 198.565 C 554.113 189.870, 563.273 169.931, 563.255 148 C 563.240 129.249, 558.147 114.174, 547.970 102.756 C 536.836 90.264, 527.130 86.335, 505.402 85.527 C 497.206 85.222, 484.762 84.737, 477.750 84.450 L 465 83.926 465 122.798 M 766.133 167.750 C 766.207 213.813, 766.544 262.075, 766.883 275 L 767.500 298.500 777.500 298.232 C 798.670 297.664, 815.832 289.637, 828.365 274.443 C 837.910 262.871, 842.883 251.044, 847.263 229.500 C 849.243 219.764, 849.498 215.512, 849.484 192.500 C 849.470 169.957, 849.171 164.888, 847.240 154.376 C 843.446 133.722, 838.673 120.902, 830.533 109.493 C 819.290 93.739, 797.453 84, 773.369 84 L 766 84 766.133 167.750 M 744.475 85.729 L 739.450 86.089 739.844 157.544 C 740.174 217.539, 740.018 228.998, 738.869 228.986 C 738.042 228.977, 731.978 216.597, 723.562 197.736 C 699.184 143.106, 673.872 87.532, 672.920 86.550 C 671.830 85.424, 671.697 168.012, 672.665 245.790 L 673.328 299.081 680.414 298.790 L 687.500 298.500 687.105 230.250 C 686.747 168.583, 686.861 162, 688.287 162 C 689.155 162, 690.185 163.012, 690.576 164.250 C 690.967 165.488, 693.645 171.675, 696.527 178 C 699.410 184.325, 708.824 205.250, 717.447 224.500 C 744.049 283.883, 752.411 302, 753.221 302 C 753.649 302, 754 253.882, 754 195.071 C 754 99.197, 753.838 87.980, 752.429 86.571 C 751.564 85.707, 750.552 85.083, 750.179 85.185 C 749.805 85.287, 747.239 85.532, 744.475 85.729 M 598.743 140.750 C 584.696 196.842, 560.333 293.115, 559.391 296.250 C 558.923 297.807, 559.686 298, 566.310 298 C 571.069 298, 574.114 297.549, 574.749 296.750 C 575.296 296.063, 578.089 285.600, 580.957 273.500 C 583.824 261.400, 586.410 250.643, 586.702 249.596 C 587.208 247.781, 588.101 247.722, 605.866 248.343 C 616.115 248.701, 628.100 248.999, 632.500 249.004 L 640.500 249.013 645.760 270.257 C 648.654 281.940, 651.487 293.188, 652.057 295.250 L 653.094 299 661.114 299 C 668.281 299, 669.080 298.814, 668.623 297.250 C 668.342 296.288, 664.732 282.450, 660.602 266.500 C 656.472 250.550, 652.372 234.800, 651.492 231.500 C 649.014 222.217, 637.238 177.061, 633.367 162 C 631.459 154.575, 628.369 142.650, 626.501 135.500 C 621.669 117.011, 614 86.893, 614 86.409 C 614 86.184, 613.652 86, 613.226 86 C 612.801 86, 606.283 110.638, 598.743 140.750 M 480.240 145.312 L 480.500 189.500 500.405 189.772 L 520.310 190.043 526.405 187.146 C 541.048 180.187, 549 165.556, 549 145.574 C 549 131.485, 544.364 120.330, 534.846 111.518 C 526.408 103.706, 521.226 102.309, 498.240 101.649 L 479.979 101.125 480.240 145.312 M 780.867 101.716 C 780.329 104.891, 781.344 279.666, 781.904 280.260 C 783.212 281.648, 793.398 279.053, 800.700 275.471 C 819.160 266.418, 830.434 246.361, 834.501 215.334 C 838.393 185.645, 834.210 149.733, 824.555 129.943 C 818.233 116.987, 809.473 108.827, 797 104.278 C 790.904 102.055, 781.074 100.494, 780.867 101.716 M 611.028 149.750 C 605.908 169.852, 592.146 230.479, 592.599 230.933 C 592.910 231.245, 602.578 231.658, 614.083 231.851 C 631.982 232.151, 635 231.990, 635 230.732 C 635 229.367, 630.972 212.349, 619.263 164.250 C 616.498 152.893, 614.097 145, 613.407 145 C 612.764 145, 611.693 147.137, 611.028 149.750 M 470.802 166.679 C 469.668 166.978, 468.846 168.686, 468.330 171.813 C 467.905 174.391, 467.544 203.275, 467.529 236 L 467.500 295.500 473 295.500 L 478.500 295.500 478.679 252.075 C 478.778 228.191, 479.076 207.819, 479.341 206.804 C 479.793 205.075, 481.103 204.975, 500.091 205.229 L 520.358 205.500 521.235 208.500 C 521.717 210.150, 522.533 214.200, 523.047 217.500 C 523.560 220.800, 524.415 225.750, 524.946 228.500 C 525.477 231.250, 526.422 236.200, 527.045 239.500 C 527.668 242.800, 528.568 247.525, 529.045 250 C 529.522 252.475, 530.382 257.087, 530.956 260.250 C 531.530 263.413, 532.495 268.587, 533.100 271.750 C 533.706 274.913, 534.563 279.525, 535.005 282 C 535.448 284.475, 536.132 288.300, 536.526 290.500 C 537.463 295.728, 539.257 297, 545.691 297 C 551.757 297, 551.614 297.357, 549.496 287.500 C 548.669 283.650, 547.311 277.125, 546.479 273 C 545.646 268.875, 544.555 263.700, 544.053 261.500 C 542.274 253.704, 541.148 248.427, 540 242.500 C 539.361 239.200, 538.446 234.700, 537.968 232.500 C 537.489 230.300, 536.631 226.250, 536.060 223.500 C 535.489 220.750, 534.307 215.407, 533.433 211.627 C 532.560 207.847, 532.101 203.734, 532.414 202.487 C 532.727 201.240, 535.135 198.839, 537.765 197.151 C 546.554 191.511, 551.593 184.797, 553.452 176.250 C 554.071 173.402, 553.903 173, 552.088 173 C 550.949 173, 549.455 173.900, 548.768 175 C 548.081 176.100, 546.784 177, 545.885 177 C 544.987 177, 542.507 178.599, 540.376 180.553 C 528.592 191.357, 521.648 193.324, 498.500 192.414 C 489.150 192.047, 480.779 191.373, 479.897 190.916 C 478.690 190.292, 478.123 187.828, 477.604 180.956 C 476.449 165.658, 476.252 165.244, 470.802 166.679 M 772.750 169.689 C 771.788 169.941, 771 170.751, 771 171.490 C 771 172.229, 770.488 173.004, 769.862 173.213 C 769.029 173.490, 768.693 190.076, 768.612 235.046 L 768.500 296.500 775.897 296.797 C 788.613 297.307, 803.388 292.886, 814.750 285.170 C 835.548 271.046, 847.365 240.863, 847.312 202 C 847.295 189.771, 846.733 188, 842.870 188 C 840.574 188, 839.942 188.409, 840.162 189.750 C 840.321 190.713, 840.152 191.973, 839.789 192.552 C 839.425 193.130, 838.631 198.530, 838.024 204.552 C 834.777 236.779, 826.063 258.530, 811.795 270.024 C 804.061 276.253, 793.504 280.904, 786.355 281.232 L 780.500 281.500 779.885 265.500 C 779.547 256.700, 779.211 238.475, 779.137 225 C 778.983 196.834, 777.205 168.940, 775.575 169.116 C 774.984 169.180, 773.712 169.438, 772.750 169.689 M 627 177.500 C 627 178.325, 627.675 179, 628.500 179 C 629.325 179, 630 178.325, 630 177.500 C 630 176.675, 629.325 176, 628.500 176 C 627.675 176, 627 176.675, 627 177.500 M 675.670 182.653 C 674.738 191.577, 673.610 289.109, 674.391 293.269 C 674.984 296.433, 675.530 297.009, 678.451 297.557 C 680.307 297.905, 682.826 297.873, 684.047 297.485 L 686.268 296.780 685.600 251.640 C 685.050 214.492, 683.602 179.388, 682.573 178.260 C 682.453 178.129, 680.988 177.748, 679.317 177.413 L 676.280 176.806 675.670 182.653 M 593.643 181.842 C 590.117 185.738, 586.457 197.824, 572.545 251.500 C 570.692 258.650, 568.236 267.988, 567.088 272.250 C 561.960 291.285, 561 295.026, 561 295.982 C 561 296.568, 563.749 297, 567.481 297 C 573.394 297, 574.004 296.803, 574.440 294.750 C 574.703 293.512, 576.300 286.650, 577.989 279.500 C 579.679 272.350, 581.564 264.250, 582.179 261.500 C 582.794 258.750, 583.840 254.475, 584.503 252 L 585.709 247.500 612.685 247.234 C 643.662 246.929, 641.781 246.372, 643.962 256.500 C 644.673 259.800, 646.033 265.425, 646.983 269 C 647.934 272.575, 649.260 277.975, 649.930 281 C 650.599 284.025, 651.527 287.625, 651.992 289 C 652.457 290.375, 653.108 292.738, 653.438 294.250 C 654.011 296.877, 654.307 297, 660.019 297 C 665.078 297, 666 296.727, 666 295.227 C 666 293.502, 663.905 284.953, 658.469 264.500 C 657.008 259, 655.434 252.925, 654.972 251 C 654.197 247.765, 653.591 245.554, 651.069 236.750 C 650.557 234.963, 649.176 229.900, 648 225.500 C 646.824 221.100, 645.443 216.037, 644.931 214.250 C 644.419 212.463, 643.611 209.537, 643.136 207.750 C 642.661 205.963, 641.152 201.125, 639.782 197 C 638.413 192.875, 636.718 187.363, 636.016 184.750 C 634.757 180.062, 632.759 178.579, 631.638 181.500 C 631.322 182.325, 630.316 183, 629.404 183 C 626.924 183, 627.402 186.187, 635.179 221.500 C 635.785 224.250, 636.330 227.850, 636.390 229.500 C 636.494 232.336, 636.254 232.527, 632 233 C 629.525 233.275, 619.400 233.275, 609.500 233 L 591.500 232.500 591.555 227.500 C 591.585 224.750, 592.398 219.125, 593.360 215 C 596.503 201.537, 599.169 184.809, 598.559 182.379 C 597.844 179.531, 595.924 179.322, 593.643 181.842 M 744.556 182.205 C 742.855 184.192, 742.623 186.700, 742.214 207.455 C 741.954 220.622, 741.330 231.036, 740.757 231.750 C 738.765 234.235, 737.238 232.872, 734.043 225.750 C 727.609 211.410, 714.728 185.493, 713.873 185.167 C 713.393 184.983, 713 183.918, 713 182.800 C 713 181.179, 712.543 180.889, 710.750 181.370 C 709.513 181.701, 707.467 181.979, 706.205 181.986 C 704.098 181.999, 703.966 182.308, 704.599 185.750 C 705.362 189.904, 710.504 203.857, 714.450 212.484 C 715.853 215.551, 717 218.260, 717 218.505 C 717 218.750, 718.350 221.897, 720 225.500 C 721.650 229.103, 723 232.250, 723 232.495 C 723 232.740, 724.072 235.317, 725.383 238.220 C 726.694 241.124, 729.341 247.100, 731.267 251.500 C 733.192 255.900, 735.945 262.087, 737.384 265.250 C 738.823 268.413, 741.152 273.587, 742.561 276.750 C 749.252 291.773, 750.447 294, 751.818 294 C 753.096 294, 753.199 287.610, 752.615 244.250 C 752.246 216.887, 751.681 191.238, 751.359 187.250 C 750.828 180.663, 750.576 180, 748.609 180 C 747.419 180, 745.595 180.992, 744.556 182.205 M 121 186.500 C 121 187.433, 121.944 188, 123.500 188 C 125.056 188, 126 187.433, 126 186.500 C 126 185.567, 125.056 185, 123.500 185 C 121.944 185, 121 185.567, 121 186.500 M 121.441 191.419 C 119.576 192.783, 119.486 194.683, 119.152 239.932 L 118.803 287.026 153.652 286.763 L 188.500 286.500 188.808 281.672 C 188.977 279.017, 188.644 276.276, 188.067 275.581 C 187.296 274.652, 179.798 274.133, 159.773 273.622 C 144.788 273.240, 132.241 272.607, 131.891 272.214 C 131.541 271.821, 130.964 260.178, 130.609 246.340 C 130.027 223.659, 130.128 221.015, 131.630 219.513 C 133.070 218.073, 135.477 217.883, 149.398 218.111 L 165.500 218.375 165.795 212.838 L 166.091 207.301 158.395 206.651 C 154.162 206.293, 146.687 206, 141.783 206 C 130.318 206, 129.004 205.303, 128.986 199.215 C 128.966 192.265, 128.128 190, 125.574 190 C 124.369 190, 122.509 190.639, 121.441 191.419 M 503 527.367 C 503 528.206, 482.110 647.248, 481.041 652.500 C 480.128 656.983, 475.731 681.584, 466.920 731.500 C 465.270 740.850, 461.277 763.125, 458.047 781 C 454.817 798.875, 449.437 828.800, 446.090 847.500 C 442.743 866.200, 437.340 896.349, 434.083 914.497 C 430.826 932.646, 428.238 947.547, 428.331 947.611 C 429.146 948.170, 443.897 948.667, 444.640 948.160 C 445.173 947.797, 447.985 934.225, 450.890 918 C 453.794 901.775, 458.832 873.796, 462.085 855.824 C 465.338 837.852, 468 822.884, 468 822.561 C 468 822.239, 484.313 822.093, 504.250 822.238 L 540.500 822.500 541.278 826 C 541.706 827.925, 545.211 847.050, 549.067 868.500 C 552.923 889.950, 557.925 917.063, 560.181 928.750 L 564.284 950 572.688 950 L 581.091 950 580.551 946.750 C 580.254 944.962, 577.957 932.250, 575.447 918.500 C 572.936 904.750, 564.635 859.300, 557.001 817.500 C 515.912 592.524, 504.989 532.096, 504.995 529.809 C 504.998 528.879, 504.550 527.840, 504 527.500 C 503.450 527.160, 503 527.100, 503 527.367 M 602.480 533.222 C 602.130 534.620, 601.991 628.552, 602.171 741.962 C 602.498 946.733, 602.514 948.172, 604.498 949.622 C 605.855 950.614, 608.419 950.989, 612.498 950.791 L 618.500 950.500 619 887.500 L 619.500 824.500 647.750 824.882 L 676 825.263 676 816.632 L 676 808 647.500 808 L 619 808 619 750.165 C 619 718.356, 618.701 659.856, 618.336 620.165 L 617.671 548 662.336 548 L 707 548 707 540 L 707 532 696.250 531.997 C 690.337 531.995, 666.964 531.698, 644.309 531.337 L 603.118 530.682 602.480 533.222 M 734.250 531.744 L 726 532.081 726 741.878 L 726 951.674 769.664 952.337 C 793.679 952.702, 820.904 953, 830.164 953 L 847 953 847 944.500 L 847 936 831.164 936 C 822.453 936, 799.053 935.702, 779.164 935.338 C 751.978 934.840, 743 934.964, 743 935.838 C 743 936.706, 755.919 937, 793.981 937 L 844.962 937 845.547 939.330 C 845.868 940.612, 845.989 943.649, 845.816 946.080 L 845.500 950.500 786.500 950.500 L 727.500 950.500 727.527 835 C 727.542 771.475, 727.925 713.763, 728.378 706.750 L 729.201 694 732.940 694 L 736.678 694 737.801 702.250 C 738.418 706.788, 739.200 732.320, 739.538 758.989 C 739.935 790.386, 740.521 807.922, 741.198 808.739 C 741.997 809.701, 749.267 810.004, 771.872 810.015 C 788.168 810.024, 802.087 810.403, 802.805 810.858 C 803.699 811.425, 804.013 813.544, 803.805 817.593 L 803.500 823.500 773 823.515 C 756.225 823.523, 741.938 823.887, 741.250 824.324 C 739.648 825.342, 739.403 931.513, 741 932.500 C 741.662 932.909, 742 914.804, 742 878.939 L 742 824.761 773.750 825.130 L 805.500 825.500 805.788 817.409 L 806.076 809.318 787.878 808.659 C 777.869 808.297, 763.518 808, 755.988 808 L 742.298 808 741.646 744.750 C 741.288 709.962, 741.109 651.575, 741.248 615 L 741.500 548.500 786.500 547.888 C 811.250 547.552, 834.987 547.214, 839.250 547.138 L 847 547 847 539 L 847 531 794.750 531.204 C 766.013 531.315, 738.788 531.559, 734.250 531.744 M 502 621.464 C 502 623.530, 493.689 677.844, 488.528 709.500 C 486.615 721.238, 480.689 758.519, 476.954 782.320 C 475.329 792.670, 474 802.233, 474 803.570 L 474 806 504.500 806 C 523.948 806, 535 805.641, 535 805.011 C 535 804.090, 533.417 794.213, 524.504 739.500 C 522.622 727.950, 519.474 708.600, 517.508 696.500 C 515.542 684.400, 511.923 662.350, 509.467 647.499 C 507.010 632.649, 505 620.161, 505 619.749 C 505 619.337, 504.325 619, 503.500 619 C 502.572 619, 502 619.940, 502 621.464 M 523 702 C 523 703.111, 523.667 704, 524.500 704 C 525.333 704, 526 703.111, 526 702 C 526 700.889, 525.333 700, 524.500 700 C 523.667 700, 523 700.889, 523 702 M 530 706 C 530 707.631, 529.333 708, 526.387 708 C 522.847 708, 522.786 708.067, 523.403 711.250 C 523.750 713.038, 524.086 715.175, 524.151 716 C 524.255 717.314, 525.922 730.127, 529.032 753.500 C 529.544 757.350, 530.385 763.200, 530.900 766.500 C 531.415 769.800, 532.118 774.525, 532.462 777 C 533.282 782.906, 534.726 791.556, 536.134 798.986 C 537.852 808.059, 537.918 808.025, 518.628 807.871 C 509.757 807.800, 495.750 807.462, 487.500 807.121 L 472.500 806.500 472.728 801 C 472.955 795.547, 474.227 785.591, 476.049 775 C 476.938 769.836, 483.166 724.149, 484.399 713.750 C 484.847 709.968, 484.660 709, 483.481 709 C 481.558 709, 478 712.571, 478 714.500 C 478 715.325, 477.550 716, 477 716 C 476.450 716, 476 715.550, 476 715 C 476 714.450, 475.372 714, 474.605 714 C 473.756 714, 472.999 715.467, 472.670 717.750 C 472.373 719.813, 471.694 723.525, 471.161 726 C 468.023 740.585, 462.833 766.093, 460.989 776 C 459.811 782.325, 457.980 792, 456.920 797.500 C 453.526 815.110, 453.098 817.344, 451.465 826 C 449.509 836.359, 448.191 843.735, 446.995 851 C 446.203 855.809, 444.318 866.084, 441.031 883.500 C 440.512 886.250, 439.193 893.675, 438.099 900 C 437.006 906.325, 435.170 916.675, 434.019 923 C 431.116 938.960, 430.013 945.367, 430.006 946.294 C 430.003 946.730, 433.224 946.955, 437.165 946.794 L 444.331 946.500 445.505 940.500 C 446.150 937.200, 447.239 931.125, 447.924 927 C 448.610 922.875, 449.548 917.475, 450.010 915 C 450.471 912.525, 451.333 907.688, 451.924 904.250 C 452.516 900.813, 453.484 895.188, 454.076 891.750 C 454.667 888.313, 455.533 883.475, 456 881 C 456.467 878.525, 457.353 873.575, 457.970 870 C 458.587 866.425, 459.495 861.250, 459.988 858.500 C 460.480 855.750, 461.327 851.025, 461.870 848 C 462.413 844.975, 463.389 839.350, 464.040 835.500 C 464.691 831.650, 465.736 826.700, 466.362 824.500 L 467.500 820.500 504 820.876 C 524.075 821.083, 541.005 821.653, 541.622 822.142 C 542.239 822.632, 542.995 824.937, 543.302 827.266 C 543.608 829.595, 544.364 834.200, 544.980 837.500 C 545.596 840.800, 546.505 845.975, 547 849 C 547.495 852.025, 548.373 857.087, 548.950 860.250 C 549.528 863.413, 550.430 868.362, 550.957 871.250 C 551.483 874.138, 552.607 880.550, 553.454 885.500 C 555.924 899.925, 557.074 906.229, 558.015 910.500 C 558.500 912.700, 559.886 919.900, 561.095 926.500 C 562.304 933.100, 563.816 940.750, 564.455 943.500 L 565.618 948.500 572.309 948.796 L 579 949.091 579 945.912 C 579 944.163, 578.590 941.105, 578.088 939.116 C 577.586 937.127, 576.711 932.800, 576.143 929.500 C 574.618 920.646, 569.170 891.198, 568.094 886 C 567.582 883.525, 566.643 878.575, 566.006 875 C 565.370 871.425, 564.419 866.250, 563.894 863.500 C 562.684 857.159, 561.263 849.467, 560.060 842.750 C 558.801 835.716, 557.024 826.398, 556.008 821.500 C 555.552 819.300, 554.659 814.350, 554.023 810.500 C 553.388 806.650, 552.469 801.475, 551.982 799 C 551.167 794.861, 550.217 789.913, 547.952 778 C 544.209 758.322, 543.876 756.640, 540.432 740 C 537.728 726.936, 537.016 723.753, 534.953 715.500 C 534.265 712.750, 533.495 709.038, 533.242 707.250 C 532.741 703.715, 530 702.658, 530 706 M 609.377 706.689 C 605.026 707.543, 604.872 711.390, 604.275 833.750 L 603.712 949 610.348 949 L 616.985 949 617.242 886.250 L 617.500 823.500 646 823 L 674.500 822.500 674.500 816.500 L 674.500 810.500 647 809.970 C 631.875 809.678, 619.009 809.133, 618.409 808.759 C 617.667 808.296, 617.099 794.697, 616.636 766.289 C 616.261 743.305, 615.673 720.337, 615.329 715.250 C 614.667 705.434, 614.799 705.625, 609.377 706.689 M 474.738 1023.750 C 472.275 1031.313, 461.237 1064.950, 450.209 1098.500 C 439.182 1132.050, 429.868 1160.513, 429.512 1161.750 C 428.875 1163.965, 429.006 1164, 437.885 1164 L 446.905 1164 453.648 1142.980 L 460.391 1121.959 479.849 1122.230 L 499.308 1122.500 506.404 1143.500 L 513.500 1164.500 522.250 1164.789 C 527.063 1164.948, 530.997 1164.723, 530.993 1164.289 C 530.989 1163.855, 526.349 1149.325, 520.681 1132 C 491.241 1042, 480.548 1010, 479.915 1010 C 479.531 1010, 477.201 1016.188, 474.738 1023.750 M 541.173 1054 C 541.234 1078.475, 541.557 1113.800, 541.892 1132.500 L 542.500 1166.500 550 1166.500 L 557.500 1166.500 557.761 1123.250 C 557.963 1089.637, 558.297 1080.006, 559.261 1080.027 C 560.347 1080.051, 568.869 1095.612, 606.313 1165.946 C 611.160 1175.051, 615.547 1182.927, 616.063 1183.450 C 617.161 1184.563, 617.336 1103.349, 616.337 1056.750 L 615.677 1026 607.839 1026 L 600 1026 600 1070 C 600 1106.101, 599.760 1114, 598.661 1114 C 597.924 1114, 596.762 1112.763, 596.079 1111.250 C 593.801 1106.203, 543.993 1013.371, 542.517 1011.421 C 541.239 1009.732, 541.077 1014.880, 541.173 1054 M 53.777 1089.099 C 53.625 1126.719, 53.655 1158.248, 53.844 1159.163 C 54.345 1161.586, 63.821 1162.423, 74.084 1160.950 C 101.796 1156.974, 120.589 1140.588, 129.116 1112.965 C 131.012 1106.823, 131.425 1103.196, 131.446 1092.500 C 131.476 1077.587, 129.829 1069.749, 124.305 1058.507 C 112.978 1035.458, 93.004 1022.982, 64.777 1021.327 L 54.054 1020.698 53.777 1089.099 M 140 1092.500 L 140 1162 154.338 1162 C 162.224 1162, 179.549 1162.297, 192.838 1162.660 L 217 1163.320 217 1154.160 L 217 1145 187.750 1145.177 C 161.598 1145.336, 160.089 1145.428, 173.500 1146.048 C 181.750 1146.430, 194.688 1146.800, 202.250 1146.871 L 216 1147 216 1154.012 L 216 1161.025 179.250 1160.762 L 142.500 1160.500 142.553 1124.802 C 142.614 1084.314, 142.664 1084, 149.122 1084 C 152.643 1084, 152.978 1084.261, 153.947 1087.750 C 154.520 1089.813, 154.991 1093.836, 154.994 1096.691 C 154.998 1099.740, 155.516 1102.216, 156.250 1102.691 C 156.938 1103.136, 161.100 1103.725, 165.500 1104 L 173.500 1104.500 173.796 1111.250 L 174.091 1118 166.246 1118 C 161.477 1118, 157.929 1118.471, 157.200 1119.200 C 155.690 1120.710, 155.502 1144, 157 1144 C 157.611 1144, 158 1139.333, 158 1132 L 158 1120 167 1120 L 176 1120 176 1111.038 L 176 1102.075 166.750 1101.788 L 157.500 1101.500 157.220 1073 C 157.065 1057.325, 157.200 1043.433, 157.519 1042.128 L 158.099 1039.757 187.550 1040.493 L 217 1041.229 217 1032.115 L 217 1023 178.500 1023 L 140 1023 140 1092.500 M 272 1093.500 L 272 1163 280.500 1163 L 289 1163 289 1142 L 289 1121 298 1121 L 307 1121 307 1112 L 307 1103 298 1103 L 289 1103 289 1072.500 L 289 1042 306.500 1042 L 324 1042 324 1033 L 324 1024 298 1024 L 272 1024 272 1093.500 M 328.797 1093.181 C 328.432 1154.006, 328.557 1161.641, 329.938 1162.789 C 330.963 1163.641, 333.863 1163.980, 338.494 1163.789 L 345.500 1163.500 345.770 1142.250 L 346.040 1121 361.397 1121 C 374.424 1121, 376.963 1121.250, 378.128 1122.644 C 378.882 1123.548, 384.293 1133.111, 390.152 1143.894 L 400.804 1163.500 410.402 1163.786 C 415.681 1163.944, 420 1163.818, 420 1163.507 C 420 1163.195, 414.600 1152.934, 408 1140.704 C 401.400 1128.473, 396 1117.789, 396 1116.961 C 396 1116.133, 397.528 1114.632, 399.396 1113.626 C 406.749 1109.666, 415.641 1097.440, 418.633 1087.177 C 420.839 1079.607, 420.585 1066.080, 418.084 1058 C 414.085 1045.083, 405.321 1034.981, 393 1029.087 L 385.500 1025.500 357.353 1025.181 L 329.206 1024.862 328.797 1093.181 M 684.322 1028.034 C 665.765 1031.364, 648.481 1043.513, 638.724 1060.087 C 630.266 1074.455, 626.945 1094.763, 630.399 1111 C 633.298 1124.630, 642.712 1141.086, 652.850 1150.246 C 657.899 1154.807, 664.865 1159.469, 665.573 1158.760 C 665.866 1158.468, 664.394 1157.179, 662.303 1155.896 C 656.127 1152.108, 649.061 1144.983, 644.058 1137.500 C 636.011 1125.463, 633.130 1117.852, 632.312 1106.482 C 631.655 1097.337, 632.141 1096.481, 638.574 1095.452 L 642.549 1094.816 644.729 1103.991 C 650.407 1127.896, 665.581 1144.733, 685.802 1149.567 C 707.714 1154.805, 730.539 1143.230, 741.027 1121.562 C 743.212 1117.048, 745 1112.872, 745 1112.284 C 745 1110.610, 747.082 1110.205, 752.853 1110.760 L 758.186 1111.272 757.512 1115.766 C 756.813 1120.429, 756.239 1122.111, 752.485 1130.500 C 746.206 1144.528, 731.991 1157.032, 715.854 1162.721 C 709.535 1164.948, 706.811 1165.317, 696.500 1165.341 C 684.327 1165.369, 678.156 1164.200, 671.035 1160.518 C 669.264 1159.602, 667.587 1159.079, 667.310 1159.357 C 666.437 1160.230, 674.744 1163.976, 681.251 1165.643 C 694.268 1168.979, 710.482 1167.238, 723.500 1161.106 C 742.738 1152.045, 757.101 1133.060, 760.492 1112.210 L 761.189 1107.919 752.402 1108.210 L 743.614 1108.500 741.974 1114 C 739.850 1121.122, 737.597 1125.449, 733.125 1131 C 722.538 1144.142, 710.212 1149.650, 693.362 1148.768 C 685.020 1148.332, 683.071 1147.845, 676.327 1144.512 C 658.271 1135.588, 646.706 1116.843, 646.706 1096.500 C 646.706 1076.047, 657.941 1057.704, 675.646 1049.250 C 683.249 1045.620, 683.852 1045.500, 694.500 1045.500 C 704.760 1045.500, 705.946 1045.711, 712.135 1048.643 L 718.769 1051.787 724.885 1045.617 C 728.248 1042.223, 731 1039.092, 731 1038.658 C 731 1037.495, 715.268 1030.444, 709.653 1029.090 C 702.850 1027.451, 690.452 1026.934, 684.322 1028.034 M 769 1098.194 L 769 1167.691 781.750 1168.342 C 788.763 1168.699, 806.087 1168.994, 820.250 1168.996 L 846 1169 846 1160.617 C 846 1152.768, 845.856 1152.195, 843.750 1151.630 C 842.513 1151.299, 829.013 1151.021, 813.750 1151.014 L 786 1151 786 1138.500 L 786 1126 795 1126 L 804 1126 804 1117 L 804 1108 795 1108 L 786 1108 786 1077.500 L 786 1047 815.500 1047 L 845 1047 845 1038.500 L 845 1030 817.656 1030 C 802.616 1030, 785.516 1029.707, 779.656 1029.348 L 769 1028.696 769 1098.194 M 69.833 1090.750 C 69.678 1137.840, 69.616 1139.517, 68.975 1114 C 68.596 1098.875, 67.960 1085.037, 67.563 1083.250 C 66.869 1080.124, 66.655 1080, 61.940 1080 C 57.443 1080, 56.975 1080.227, 56.278 1082.750 C 55.860 1084.263, 55.514 1102.150, 55.509 1122.500 L 55.500 1159.500 67.500 1159.327 C 81.062 1159.131, 89.697 1156.847, 99.659 1150.821 C 117.185 1140.218, 128.903 1119.281, 128.976 1098.441 C 129.007 1089.368, 127.875 1087.677, 122.359 1088.559 L 118.263 1089.214 117.649 1095.087 C 116.997 1101.323, 114.269 1110.323, 110.780 1117.744 C 108.062 1123.526, 98.923 1133.417, 92.484 1137.546 C 85.228 1142.198, 71 1146.631, 71 1144.240 C 71 1143.700, 73.138 1142.974, 75.750 1142.627 C 82.861 1141.684, 91.828 1136.979, 98.774 1130.548 C 127.266 1104.170, 115.787 1051.052, 79.500 1041.359 C 76.750 1040.625, 73.487 1040.018, 72.250 1040.012 L 70 1040 69.833 1090.750 M 346.235 1072.670 L 346.500 1103.500 361.902 1103.777 C 381.248 1104.125, 385.597 1103.049, 393.295 1096.014 C 400.254 1089.654, 403.317 1082.973, 403.390 1074 C 403.461 1065.200, 400.888 1058.204, 395.292 1051.980 C 387.393 1043.194, 385.375 1042.557, 364.235 1042.173 L 345.971 1041.841 346.235 1072.670 M 478 1067.154 C 478 1067.789, 475.525 1075.899, 472.500 1085.177 C 469.475 1094.455, 467 1102.485, 467 1103.023 C 467 1103.609, 472.228 1104, 480.073 1104 C 490.730 1104, 493.087 1103.743, 492.823 1102.608 C 492.645 1101.843, 490.025 1093.298, 487 1083.620 C 482.633 1069.647, 481.140 1066.021, 479.750 1066.012 C 478.788 1066.005, 478 1066.519, 478 1067.154 M 499 1086.927 C 499 1087.517, 497.650 1088, 496 1088 C 492.501 1088, 492.314 1089.058, 494.200 1098.190 C 495.018 1102.148, 495.074 1104.326, 494.378 1105.022 C 493.800 1105.600, 487.568 1106.109, 480.039 1106.192 C 464.654 1106.363, 463.394 1105.777, 465.185 1099.291 C 465.897 1096.714, 465.837 1095.064, 464.974 1093.452 C 463.539 1090.770, 458.150 1089.370, 456.443 1091.235 C 455.056 1092.751, 448.894 1108.189, 444.961 1120 C 443.405 1124.675, 439.627 1135.858, 436.566 1144.851 C 433.505 1153.845, 431 1161.627, 431 1162.145 C 431 1163.785, 445.179 1162.709, 446.090 1161 C 446.530 1160.175, 449.174 1152.075, 451.967 1143 C 457.448 1125.188, 458.659 1122.222, 461.066 1120.720 C 462.054 1120.103, 469.564 1120.016, 481.385 1120.482 L 500.138 1121.222 501.471 1124.361 C 502.204 1126.088, 505.172 1134.925, 508.066 1144 C 510.960 1153.075, 513.759 1161.063, 514.286 1161.750 C 515.314 1163.091, 529 1163.576, 529 1162.271 C 529 1161.404, 513.312 1114.391, 512.058 1111.500 C 511.581 1110.400, 509.224 1104.329, 506.821 1098.009 C 503.835 1090.157, 501.905 1086.413, 500.726 1086.186 C 499.777 1086.003, 499 1086.336, 499 1086.927 M 274.333 1092.750 C 273.899 1095.362, 273.534 1111.900, 273.522 1129.500 L 273.500 1161.500 280 1161.500 L 286.500 1161.500 287.051 1140.500 C 287.355 1128.950, 287.692 1119.388, 287.801 1119.250 C 287.911 1119.112, 291.825 1119, 296.500 1119 L 305 1119 305 1112 L 305 1105 296.559 1105 C 291.916 1105, 287.851 1104.568, 287.525 1104.041 C 287.199 1103.513, 286.573 1100.099, 286.134 1096.454 C 285.249 1089.101, 284.327 1088.038, 278.811 1088.015 C 275.185 1088, 275.109 1088.081, 274.333 1092.750 M 333.047 1091.908 C 331.194 1095.540, 331.034 1098.136, 330.777 1128.658 L 330.500 1161.500 337.220 1161.795 C 343.783 1162.083, 343.955 1162.027, 344.616 1159.394 C 344.988 1157.911, 345.044 1148.985, 344.739 1139.559 C 344.410 1129.386, 344.574 1121.725, 345.142 1120.710 C 345.980 1119.213, 348.006 1119, 361.439 1119 C 374.624 1119, 377.058 1119.246, 378.766 1120.750 C 379.859 1121.713, 384.466 1129.700, 389.003 1138.500 C 393.540 1147.300, 398.448 1156.300, 399.910 1158.500 C 402.560 1162.488, 402.589 1162.501, 409.784 1162.794 C 415.392 1163.022, 417 1162.780, 417 1161.709 C 417 1160.950, 411.603 1150.468, 405.006 1138.415 L 393.011 1116.500 395.990 1114 C 397.628 1112.625, 400.524 1110.242, 402.425 1108.703 C 405.803 1105.970, 411 1097.974, 411 1095.510 C 411 1094.797, 409.054 1094.005, 406.414 1093.643 C 402.096 1093.051, 401.486 1093.279, 395.948 1097.540 C 386.651 1104.694, 384.235 1105.259, 363.547 1105.117 C 353.672 1105.049, 345.237 1104.637, 344.801 1104.201 C 344.365 1103.765, 343.716 1099.942, 343.358 1095.705 L 342.707 1088 338.874 1088 C 335.424 1088, 334.841 1088.391, 333.047 1091.908 M 551 1089 C 551 1089.550, 549.699 1090, 548.109 1090 C 545.554 1090, 545.142 1090.435, 544.555 1093.750 C 544.189 1095.813, 543.645 1112.688, 543.346 1131.250 L 542.802 1165 549.901 1165 L 557 1165 557.014 1143.250 C 557.021 1131.287, 556.499 1113.963, 555.853 1104.750 C 554.789 1089.580, 554.505 1088, 552.839 1088 C 551.828 1088, 551 1088.450, 551 1089 M 609.603 1091.833 C 609.320 1092.292, 607.788 1092.476, 606.199 1092.243 L 603.310 1091.819 602.661 1100.159 C 602.304 1104.747, 602.009 1110.638, 602.006 1113.250 C 602.003 1115.862, 601.550 1118.067, 601 1118.150 C 600.450 1118.233, 599.524 1118.345, 598.943 1118.400 C 598.362 1118.455, 596.225 1115.560, 594.193 1111.966 C 585.729 1096.993, 584.420 1094.986, 582.759 1094.442 C 581.801 1094.128, 580.452 1094.221, 579.760 1094.649 C 579.067 1095.076, 577.205 1095.290, 575.620 1095.124 C 572.917 1094.841, 572.781 1094.997, 573.431 1097.661 C 574.083 1100.332, 587.219 1127.063, 595.466 1142.500 C 597.523 1146.350, 602.349 1155.463, 606.190 1162.750 C 610.118 1170.201, 613.793 1176, 614.587 1176 C 615.700 1176, 615.990 1174.143, 615.953 1167.250 C 615.859 1149.523, 614.015 1096.414, 613.401 1093.750 C 612.796 1091.124, 610.696 1090.065, 609.603 1091.833 M 774.836 1102.620 C 772.895 1103.645, 772.025 1105.042, 771.633 1107.764 C 770.743 1113.945, 769.750 1162.638, 770.468 1164.900 C 771.129 1166.983, 771.433 1167, 807.567 1167 L 844 1167 844 1160 L 844 1153 815.655 1153 C 789.465 1153, 787.184 1152.861, 785.655 1151.171 C 784.317 1149.693, 784 1147.142, 784 1137.871 C 784 1130.283, 784.406 1125.994, 785.200 1125.200 C 785.927 1124.473, 789.454 1124, 794.141 1124 C 798.399 1124, 802.141 1123.581, 802.458 1123.068 C 802.774 1122.556, 802.739 1119.631, 802.379 1116.568 L 801.725 1111 794.017 1111 C 785.989 1111, 783 1109.576, 783 1105.753 C 783 1100.973, 780.077 1099.851, 774.836 1102.620" stroke="none" fill="#a82221" fill-rule="evenodd"/><path d="M 770.230 166.359 C 769.036 167.993, 768.500 193.459, 768.500 248.500 L 768.500 296.500 775.897 296.797 C 793.371 297.498, 813.818 288.958, 824.971 276.301 C 833.493 266.629, 840.474 252.051, 843.790 237 C 847.405 220.594, 848.757 191.461, 846.103 187.166 C 845.664 186.457, 844.358 186.345, 842.460 186.852 C 840.067 187.492, 839.483 188.205, 839.410 190.572 C 839.361 192.182, 838.780 198.450, 838.121 204.500 C 833.632 245.664, 822.393 266.864, 799.355 277.626 C 794.317 279.979, 790.485 281.042, 786.355 281.232 L 780.500 281.500 779.885 265.500 C 779.547 256.700, 779.210 238.265, 779.135 224.534 C 779.016 202.548, 777.701 175.319, 776.477 169.500 C 775.944 166.966, 771.441 164.702, 770.230 166.359 M 470.802 166.662 C 469.673 166.971, 468.844 168.699, 468.330 171.813 C 467.905 174.391, 467.544 203.275, 467.529 236 L 467.500 295.500 473 295.500 L 478.500 295.500 478.679 252.075 C 478.778 228.191, 479.076 207.819, 479.341 206.804 C 479.793 205.075, 481.103 204.975, 500.091 205.229 L 520.358 205.500 521.235 208.500 C 521.717 210.150, 522.533 214.200, 523.047 217.500 C 523.560 220.800, 524.415 225.750, 524.946 228.500 C 525.477 231.250, 526.422 236.200, 527.045 239.500 C 527.668 242.800, 528.568 247.525, 529.045 250 C 529.522 252.475, 530.382 257.087, 530.956 260.250 C 531.530 263.413, 532.495 268.587, 533.100 271.750 C 533.706 274.913, 534.563 279.525, 535.005 282 C 535.448 284.475, 536.132 288.300, 536.526 290.500 C 537.463 295.728, 539.257 297, 545.691 297 C 551.757 297, 551.614 297.357, 549.496 287.500 C 548.669 283.650, 547.311 277.125, 546.479 273 C 545.646 268.875, 544.555 263.700, 544.053 261.500 C 542.274 253.704, 541.148 248.427, 540 242.500 C 539.361 239.200, 538.446 234.700, 537.968 232.500 C 537.489 230.300, 536.631 226.250, 536.060 223.500 C 535.489 220.750, 534.307 215.407, 533.433 211.627 C 531.457 203.073, 532.011 200.772, 536.748 197.858 C 541.747 194.784, 549 188.056, 549 186.495 C 549 185.807, 549.646 184.709, 550.436 184.053 C 551.225 183.398, 552.177 181.430, 552.551 179.681 C 552.925 177.931, 553.713 175.903, 554.301 175.174 C 555.083 174.205, 554.985 173.603, 553.936 172.939 C 551.913 171.659, 551.537 171.749, 549.500 174 C 548.505 175.100, 547.179 176, 546.555 176 C 545.931 176, 543.413 177.821, 540.960 180.047 C 528.398 191.448, 521.925 193.334, 498.500 192.418 C 489.150 192.052, 480.825 191.393, 480 190.954 C 478.893 190.364, 478.238 187.057, 477.500 178.327 C 476.592 167.583, 476.317 166.486, 474.500 166.348 C 473.400 166.265, 471.736 166.406, 470.802 166.662 M 627.406 182.750 C 627.782 186.463, 628.501 191.075, 629.004 193 C 629.507 194.925, 631.076 202.125, 632.490 209 C 633.905 215.875, 635.552 223.397, 636.151 225.715 C 638.110 233.298, 638.826 233.072, 613.774 232.769 L 591.500 232.500 591.555 227.500 C 591.585 224.750, 592.398 219.125, 593.360 215 C 596.503 201.537, 599.169 184.809, 598.559 182.379 C 597.844 179.531, 595.924 179.322, 593.643 181.842 C 590.117 185.738, 586.457 197.824, 572.545 251.500 C 570.692 258.650, 568.236 267.988, 567.088 272.250 C 561.960 291.285, 561 295.026, 561 295.982 C 561 296.568, 563.749 297, 567.481 297 C 573.394 297, 574.004 296.803, 574.440 294.750 C 574.703 293.512, 576.300 286.650, 577.989 279.500 C 579.679 272.350, 581.564 264.250, 582.179 261.500 C 582.794 258.750, 583.840 254.475, 584.503 252 L 585.709 247.500 612.685 247.234 C 643.662 246.929, 641.781 246.372, 643.962 256.500 C 644.673 259.800, 646.033 265.425, 646.983 269 C 647.934 272.575, 649.260 277.975, 649.930 281 C 650.599 284.025, 651.527 287.625, 651.992 289 C 652.457 290.375, 653.108 292.738, 653.438 294.250 C 654.018 296.909, 654.255 297, 660.586 297 C 666.498 297, 667.078 296.820, 666.549 295.154 C 666.226 294.138, 664.846 288.963, 663.481 283.654 C 662.117 278.344, 659.833 269.613, 658.406 264.250 C 656.979 258.887, 655.434 252.925, 654.972 251 C 654.157 247.599, 652.802 242.637, 651.013 236.500 C 650.532 234.850, 649.176 229.900, 648 225.500 C 646.824 221.100, 645.443 216.037, 644.931 214.250 C 644.419 212.463, 643.595 209.537, 643.101 207.750 C 640.821 199.510, 634.948 181.226, 633.788 178.758 C 632.823 176.702, 631.777 176.014, 629.612 176.008 L 626.724 176 627.406 182.750 M 676.385 177.186 C 674.875 179.629, 673.228 289.519, 674.624 294.725 C 675.292 297.219, 680.280 298.681, 684.042 297.487 L 686.259 296.783 685.597 250.642 C 684.845 198.212, 683.635 178.489, 681.112 177.580 C 680.226 177.260, 678.979 176.750, 678.342 176.447 C 677.705 176.143, 676.824 176.475, 676.385 177.186 M 707 180 C 707 181.333, 706.333 182, 705 182 C 702.891 182, 702.309 183.455, 704 184.500 C 704.550 184.840, 705 185.953, 705 186.973 C 705 189.021, 710.462 203.765, 714.450 212.484 C 715.853 215.551, 717 218.260, 717 218.505 C 717 218.750, 718.350 221.897, 720 225.500 C 721.650 229.103, 723 232.250, 723 232.495 C 723 232.740, 724.072 235.317, 725.383 238.220 C 726.694 241.124, 729.341 247.100, 731.267 251.500 C 733.192 255.900, 735.996 262.200, 737.498 265.500 C 739 268.800, 741.327 273.975, 742.670 277 C 748.859 290.943, 751.427 296, 752.318 296 C 753.318 296, 752.487 201.103, 751.366 187.315 C 750.695 179.060, 749.389 177.809, 745.350 181.551 L 742.676 184.030 742.218 207.265 C 741.956 220.552, 741.331 231.035, 740.757 231.750 C 738.765 234.235, 737.238 232.872, 734.043 225.750 C 727.609 211.410, 714.728 185.493, 713.873 185.167 C 713.393 184.983, 713 183.971, 713 182.917 C 713 181.667, 712.304 181, 711 181 C 709.889 181, 709 180.333, 709 179.500 C 709 178.675, 708.550 178, 708 178 C 707.450 178, 707 178.900, 707 180 M 629 180.500 C 629 181.325, 629.675 182, 630.500 182 C 631.325 182, 632 181.325, 632 180.500 C 632 179.675, 631.325 179, 630.500 179 C 629.675 179, 629 179.675, 629 180.500 M 122.250 184.746 C 120.768 185.245, 120.556 188, 122 188 C 123.608 188, 123.151 190.169, 121.250 191.559 C 119.635 192.739, 119.473 196.472, 119.152 239.932 L 118.803 287.026 153.652 286.763 L 188.500 286.500 188.808 281.672 C 188.977 279.017, 188.644 276.276, 188.067 275.581 C 187.296 274.652, 179.798 274.133, 159.773 273.622 C 144.788 273.240, 132.239 272.607, 131.887 272.214 C 131.534 271.821, 130.978 260.157, 130.651 246.293 C 130.117 223.634, 130.225 220.918, 131.718 219.425 C 133.162 217.981, 135.484 217.811, 149.440 218.131 L 165.500 218.500 165.795 212.901 L 166.091 207.301 158.395 206.651 C 154.162 206.293, 146.687 206, 141.783 206 C 129.571 206, 129 205.597, 129 196.965 C 129 191.217, 128.717 190, 127.383 190 C 126.212 190, 125.894 189.333, 126.230 187.577 C 126.701 185.113, 124.921 183.847, 122.250 184.746 M 53.334 187.324 C 52.135 187.921, 50.885 189.763, 50.535 191.451 C 49.539 196.247, 48.657 439.066, 49.633 439.963 C 50.110 440.401, 81.325 440.926, 119 441.130 L 187.500 441.500 187.500 435 L 187.500 428.500 181.500 427.859 C 178.200 427.506, 150.653 427.168, 120.285 427.109 L 65.070 427 63.818 424.750 C 62.854 423.019, 62.405 400.947, 61.867 329 C 61.170 235.725, 60.591 204.075, 59.369 192.250 C 58.681 185.604, 57.965 185.019, 53.334 187.324 M 730.848 693.671 C 727.998 694.427, 727.551 713.441, 727.525 835 L 727.500 950.500 786.500 950.500 L 845.500 950.500 845.816 946.080 C 845.989 943.649, 845.868 940.612, 845.547 939.330 L 844.962 937 794.231 936.994 L 743.500 936.987 741.750 933.913 C 740.144 931.091, 740 926.483, 740 877.978 C 740 836.780, 740.276 824.943, 741.250 824.324 C 741.938 823.887, 756.225 823.523, 773 823.515 L 803.500 823.500 803.805 817.593 C 804.013 813.544, 803.699 811.425, 802.805 810.858 C 802.087 810.403, 788.168 810.024, 771.872 810.015 C 749.178 810.004, 741.999 809.703, 741.192 808.732 C 740.507 807.906, 739.915 790.211, 739.496 757.982 C 739.142 730.767, 738.414 705.904, 737.879 702.731 C 737.343 699.558, 737.179 696.520, 737.513 695.979 C 737.981 695.222, 733.533 692.584, 732.685 693.116 C 732.583 693.180, 731.756 693.429, 730.848 693.671 M 523.070 700.869 C 521.989 702.889, 522.555 704, 524.667 704 C 525.422 704, 526 702.917, 526 701.500 C 526 698.552, 524.485 698.225, 523.070 700.869 M 530 706 C 530 707.627, 529.333 708, 526.428 708 L 522.856 708 523.493 713.750 C 523.843 716.913, 524.526 721.750, 525.009 724.500 C 525.493 727.250, 526.155 731.975, 526.480 735 C 526.805 738.025, 527.489 743.200, 527.999 746.500 C 528.510 749.800, 529.394 755.763, 529.964 759.750 C 533.039 781.265, 534.317 789.392, 536.134 798.986 C 537.852 808.059, 537.918 808.025, 518.628 807.871 C 509.757 807.800, 495.750 807.462, 487.500 807.121 L 472.500 806.500 472.728 801 C 472.951 795.646, 474.152 786.169, 476.025 775 C 477.644 765.341, 478.978 755.964, 481.431 737 C 485.116 708.504, 485.063 709.157, 483.784 708.366 C 483.143 707.970, 482.441 708.176, 482.226 708.823 C 481.750 710.251, 478 710.408, 478 709 C 478 708.450, 477.622 708, 477.161 708 C 475.961 708, 473.845 712.787, 472.851 717.750 C 472.383 720.087, 471.593 723.913, 471.096 726.250 C 467.407 743.600, 462.785 766.351, 460.989 776 C 459.811 782.325, 457.980 792, 456.920 797.500 C 453.526 815.110, 453.098 817.344, 451.465 826 C 449.509 836.359, 448.191 843.735, 446.995 851 C 446.203 855.809, 444.318 866.084, 441.031 883.500 C 440.512 886.250, 439.193 893.675, 438.099 900 C 437.006 906.325, 435.170 916.675, 434.019 923 C 431.116 938.960, 430.013 945.367, 430.006 946.294 C 430.003 946.730, 433.224 946.955, 437.165 946.794 L 444.331 946.500 445.505 940.500 C 446.150 937.200, 447.239 931.125, 447.924 927 C 448.610 922.875, 449.548 917.475, 450.010 915 C 450.471 912.525, 451.333 907.688, 451.924 904.250 C 452.516 900.813, 453.484 895.188, 454.076 891.750 C 454.667 888.313, 455.533 883.475, 456 881 C 456.467 878.525, 457.353 873.575, 457.970 870 C 458.587 866.425, 459.495 861.250, 459.988 858.500 C 460.480 855.750, 461.327 851.025, 461.870 848 C 462.413 844.975, 463.389 839.350, 464.040 835.500 C 464.691 831.650, 465.736 826.700, 466.362 824.500 L 467.500 820.500 504 820.876 C 524.075 821.083, 541.005 821.653, 541.622 822.142 C 542.239 822.632, 542.995 824.937, 543.302 827.266 C 543.608 829.595, 544.364 834.200, 544.980 837.500 C 545.596 840.800, 546.505 845.975, 547 849 C 547.495 852.025, 548.373 857.087, 548.950 860.250 C 549.528 863.413, 550.430 868.362, 550.957 871.250 C 551.483 874.138, 552.607 880.550, 553.454 885.500 C 555.924 899.925, 557.074 906.229, 558.015 910.500 C 558.500 912.700, 559.886 919.900, 561.095 926.500 C 562.304 933.100, 563.816 940.750, 564.455 943.500 L 565.618 948.500 572.309 948.796 L 579 949.091 579 945.912 C 579 944.163, 578.590 941.105, 578.088 939.116 C 577.586 937.127, 576.711 932.800, 576.143 929.500 C 574.618 920.646, 569.170 891.198, 568.094 886 C 567.582 883.525, 566.643 878.575, 566.006 875 C 565.370 871.425, 564.419 866.250, 563.894 863.500 C 562.684 857.159, 561.263 849.467, 560.060 842.750 C 558.801 835.716, 557.024 826.398, 556.008 821.500 C 555.552 819.300, 554.659 814.350, 554.023 810.500 C 553.388 806.650, 552.469 801.475, 551.982 799 C 551.167 794.861, 550.217 789.913, 547.952 778 C 544.209 758.322, 543.876 756.640, 540.432 740 C 537.728 726.936, 537.016 723.753, 534.953 715.500 C 534.265 712.750, 533.495 709.038, 533.242 707.250 C 532.741 703.715, 530 702.658, 530 706 M 609 706.892 C 606.912 707.471, 606.379 708.402, 605.768 712.542 C 605.365 715.269, 604.737 769.587, 604.372 833.250 L 603.710 949 610.347 949 L 616.985 949 617.242 886.250 L 617.500 823.500 646 823 L 674.500 822.500 674.500 816.500 L 674.500 810.500 647 809.970 C 631.875 809.678, 619.009 809.133, 618.409 808.759 C 617.667 808.296, 617.099 794.697, 616.636 766.289 C 616.261 743.305, 615.673 720.337, 615.329 715.250 C 614.660 705.331, 614.655 705.325, 609 706.892 M 60.754 1079.799 C 57.664 1080.064, 56.877 1080.591, 56.263 1082.810 C 55.853 1084.290, 55.514 1102.150, 55.509 1122.500 L 55.500 1159.500 67.500 1159.327 C 81.062 1159.131, 89.697 1156.847, 99.659 1150.821 C 117.185 1140.218, 128.903 1119.281, 128.976 1098.441 C 129.007 1089.368, 127.875 1087.677, 122.359 1088.559 L 118.263 1089.214 117.649 1095.087 C 116.369 1107.329, 110.871 1119.861, 103.081 1128.291 C 94.722 1137.337, 85.842 1142.438, 74.876 1144.496 C 71.618 1145.107, 71.218 1144.920, 70.230 1142.332 C 69.605 1140.693, 68.927 1127.914, 68.621 1112 C 68.330 1096.875, 67.802 1083.519, 67.447 1082.319 C 66.683 1079.733, 65.726 1079.373, 60.754 1079.799 M 143.972 1086.552 C 142.894 1088.566, 142.595 1096.624, 142.553 1124.802 L 142.500 1160.500 179.250 1160.762 L 216 1161.025 216 1154.153 L 216 1147.282 187.839 1146.549 C 169.602 1146.074, 159.030 1145.411, 157.839 1144.667 C 156.226 1143.660, 156 1142.099, 156 1131.959 C 156 1124.302, 156.405 1119.995, 157.200 1119.200 C 157.926 1118.474, 161.448 1118, 166.117 1118 C 170.516 1118, 173.981 1117.558, 174.176 1116.971 C 174.365 1116.405, 174.290 1113.368, 174.010 1110.221 L 173.500 1104.500 165.500 1104 C 161.100 1103.725, 156.938 1103.136, 156.250 1102.691 C 155.516 1102.216, 154.998 1099.740, 154.994 1096.691 C 154.991 1093.836, 154.520 1089.813, 153.947 1087.750 C 152.978 1084.261, 152.643 1084, 149.122 1084 C 146.089 1084, 145.067 1084.506, 143.972 1086.552 M 499 1086.500 C 499 1088.339, 494.366 1088.558, 493.720 1086.750 C 493.475 1086.063, 492.972 1085.778, 492.602 1086.118 C 492.233 1086.458, 492.434 1089.383, 493.049 1092.618 C 493.664 1095.853, 494.243 1100.075, 494.334 1102 L 494.500 1105.500 481.500 1106.046 C 474.350 1106.346, 467.655 1106.188, 466.623 1105.693 C 465.040 1104.935, 464.835 1104.039, 465.316 1099.976 C 466.102 1093.342, 464.454 1090.018, 460.372 1090.008 C 458.652 1090.004, 456.810 1090.563, 456.279 1091.250 C 454.979 1092.932, 448.460 1109.492, 444.961 1120 C 443.405 1124.675, 439.627 1135.858, 436.566 1144.851 C 433.505 1153.845, 431 1161.627, 431 1162.145 C 431 1163.785, 445.179 1162.709, 446.090 1161 C 446.530 1160.175, 449.174 1152.075, 451.967 1143 C 457.448 1125.188, 458.659 1122.222, 461.066 1120.720 C 462.054 1120.103, 469.564 1120.016, 481.385 1120.482 L 500.138 1121.222 501.471 1124.361 C 502.204 1126.088, 505.172 1134.925, 508.066 1144 C 510.960 1153.075, 513.759 1161.063, 514.286 1161.750 C 515.314 1163.091, 529 1163.576, 529 1162.271 C 529 1161.393, 513.295 1114.345, 512.052 1111.500 C 511.571 1110.400, 509.510 1105, 507.471 1099.500 C 505.431 1094, 503.131 1088.487, 502.358 1087.250 C 500.753 1084.677, 499 1084.286, 499 1086.500 M 335.081 1088.450 C 331.261 1093.274, 331.059 1095.161, 330.777 1128.648 L 330.500 1161.500 337.220 1161.795 C 343.783 1162.083, 343.955 1162.027, 344.616 1159.394 C 344.988 1157.911, 345.044 1148.985, 344.739 1139.559 C 344.410 1129.386, 344.574 1121.725, 345.142 1120.710 C 345.980 1119.213, 348.006 1119, 361.439 1119 C 374.624 1119, 377.058 1119.246, 378.766 1120.750 C 379.859 1121.713, 384.466 1129.700, 389.003 1138.500 C 393.540 1147.300, 398.448 1156.300, 399.910 1158.500 C 402.560 1162.488, 402.589 1162.501, 409.784 1162.794 C 415.410 1163.023, 417 1162.782, 417 1161.701 C 417 1160.939, 411.825 1150.839, 405.500 1139.257 C 399.175 1127.676, 394 1117.501, 394 1116.647 C 394 1115.792, 395.202 1114.285, 396.672 1113.297 C 403.236 1108.882, 412 1098.054, 412 1094.359 C 412 1092.621, 409.638 1090, 408.071 1090 C 407.482 1090, 407 1090.727, 407 1091.617 C 407 1092.768, 406.394 1093.075, 404.895 1092.683 C 403.381 1092.287, 401.021 1093.522, 396.503 1097.072 C 386.873 1104.640, 384.489 1105.218, 363.522 1105.070 C 353.634 1105.001, 345.189 1104.589, 344.755 1104.155 C 344.321 1103.721, 343.689 1099.773, 343.350 1095.383 L 342.734 1087.400 339.324 1087.400 C 337.448 1087.400, 335.539 1087.873, 335.081 1088.450 M 274.320 1092.750 C 273.878 1095.362, 273.513 1111.900, 273.509 1129.500 L 273.500 1161.500 280 1161.500 L 286.500 1161.500 287.051 1140.500 C 287.355 1128.950, 287.692 1119.388, 287.801 1119.250 C 287.911 1119.112, 291.825 1119, 296.500 1119 L 305 1119 305 1112 L 305 1105 296.559 1105 C 291.916 1105, 287.851 1104.568, 287.525 1104.041 C 287.199 1103.513, 286.573 1100.099, 286.134 1096.454 C 285.249 1089.101, 284.327 1088.038, 278.811 1088.015 C 275.187 1088, 275.109 1088.083, 274.320 1092.750 M 551 1089.125 C 551 1089.830, 549.930 1090.036, 548.135 1089.677 L 545.271 1089.104 544.135 1099.088 C 543.511 1104.579, 543 1121.656, 543 1137.036 L 543 1165 550 1165 L 557 1165 557.014 1143.250 C 557.021 1131.287, 556.499 1113.963, 555.853 1104.750 C 554.789 1089.580, 554.505 1088, 552.839 1088 C 551.828 1088, 551 1088.506, 551 1089.125 M 610.613 1090.565 C 610.200 1091.643, 609.001 1092.032, 606.757 1091.815 L 603.500 1091.500 602.867 1098 C 602.519 1101.575, 602.181 1107.537, 602.117 1111.250 C 602.008 1117.550, 601.850 1118, 599.748 1118 C 598.076 1118, 596.858 1116.777, 595.019 1113.250 C 592.345 1108.124, 585.923 1097.683, 583.545 1094.595 C 582.364 1093.060, 581.794 1092.926, 580.613 1093.906 C 579.808 1094.575, 578.552 1095.041, 577.824 1094.942 C 573.698 1094.383, 572.777 1094.975, 573.454 1097.750 C 574.084 1100.336, 587.211 1127.032, 595.459 1142.500 C 597.511 1146.350, 602.590 1155.912, 606.745 1163.750 C 610.899 1171.588, 614.681 1178, 615.149 1178 C 615.617 1178, 615.974 1173.388, 615.942 1167.750 C 615.835 1148.856, 614.092 1097.547, 613.411 1093.250 C 612.714 1088.858, 611.658 1087.844, 610.613 1090.565 M 636.465 1094.961 C 632.049 1096.731, 631.065 1100.416, 632.455 1109.980 C 634.875 1126.637, 646.760 1145.330, 661 1154.878 C 673.037 1162.948, 681.431 1165.428, 696.500 1165.364 C 706.774 1165.320, 709.558 1164.940, 715.854 1162.721 C 731.991 1157.032, 746.206 1144.528, 752.485 1130.500 C 756.239 1122.111, 756.813 1120.429, 757.512 1115.766 L 758.186 1111.272 752.853 1110.760 C 747.082 1110.205, 745 1110.610, 745 1112.284 C 745 1112.872, 743.212 1117.048, 741.027 1121.562 C 734.094 1135.885, 722.455 1145.495, 707.276 1149.429 C 691.056 1153.632, 674.726 1148.664, 661.492 1135.500 C 653.099 1127.152, 648.040 1117.705, 644.844 1104.412 C 643.665 1099.510, 642.656 1095.443, 642.601 1095.374 C 641.974 1094.591, 638.049 1094.326, 636.465 1094.961 M 776.340 1102.039 C 772.771 1103.701, 772.102 1104.510, 771.633 1107.738 C 770.648 1114.516, 769.886 1164.470, 770.749 1165.728 C 771.386 1166.658, 780.296 1166.973, 807.457 1167.025 C 845.427 1167.099, 845.667 1167.069, 844.527 1162.500 C 844.252 1161.400, 844.021 1158.813, 844.014 1156.750 L 844 1153 815.655 1153 C 789.465 1153, 787.184 1152.861, 785.655 1151.171 C 784.317 1149.693, 784 1147.142, 784 1137.871 C 784 1130.283, 784.406 1125.994, 785.200 1125.200 C 785.927 1124.473, 789.454 1124, 794.141 1124 C 798.399 1124, 802.141 1123.581, 802.458 1123.068 C 802.774 1122.556, 802.739 1119.631, 802.379 1116.568 L 801.725 1111 794.017 1111 C 785.767 1111, 783 1109.584, 783 1105.362 C 783 1104.273, 782.438 1102.644, 781.750 1101.742 C 780.598 1100.231, 780.174 1100.254, 776.340 1102.039" stroke="none" fill="#d01f27" fill-rule="evenodd"/><path d="M 1 600 L 1 1199 440 1199 L 879 1199 879 600 L 879 1 440 1 L 1 1 1 600 M 116.478 163.250 C 116.883 231.588, 117.322 287.619, 117.454 287.764 C 117.587 287.909, 133.983 288.320, 153.890 288.677 L 190.086 289.326 189.793 280.913 L 189.500 272.500 161 272 L 132.500 271.500 132.500 246 L 132.500 220.500 150.250 220.885 L 168 221.270 168 212.658 L 168 204.046 150.250 203.773 L 132.500 203.500 132.244 129.750 L 131.987 56 160.494 56 L 189 56 189 48.158 L 189 40.316 170.250 39.661 C 159.938 39.301, 143.454 39.004, 133.621 39.003 L 115.741 39 116.478 163.250 M 48.833 42.673 C 47.282 43.084, 47.204 56.949, 47.717 242.307 C 48.019 351.863, 48.362 441.617, 48.477 441.761 C 48.833 442.200, 186.416 443.605, 187.750 443.182 C 188.617 442.907, 189 440.262, 189 434.554 L 189 426.321 126.888 425.715 C 92.727 425.382, 64.575 424.908, 64.329 424.663 C 64.084 424.417, 63.617 338.555, 63.293 233.858 C 62.870 96.898, 62.395 43.294, 61.602 42.765 C 60.437 41.989, 51.657 41.926, 48.833 42.673 M 401.500 51.615 C 360.211 57.981, 324.809 75.807, 293.750 105.872 C 290.587 108.933, 288 111.930, 288 112.532 C 288 113.133, 286.591 114.948, 284.870 116.563 C 277.705 123.286, 264.423 143.593, 257.893 157.809 C 239.543 197.755, 233.374 245.124, 241.132 286.500 C 249.594 331.631, 272.631 373.740, 307.740 408.250 C 313.756 414.162, 319.011 419, 319.420 419 C 320.127 419, 327.207 424.458, 331.470 428.289 C 332.566 429.274, 335.945 431.282, 338.981 432.753 C 342.016 434.223, 344.656 435.798, 344.846 436.251 C 345.321 437.384, 361.397 445.384, 370.323 448.930 C 381.163 453.236, 396.948 457.620, 410.500 460.089 C 424.966 462.725, 452.503 463.230, 466 461.108 C 505.100 454.960, 537.825 437.618, 570.868 405.537 C 594.636 382.460, 608.287 361.467, 617.465 333.873 C 621.655 321.278, 621.829 319.209, 618.750 318.575 C 617.513 318.320, 588.938 317.837, 555.250 317.502 L 494 316.892 494 323.839 C 494 329.445, 494.327 330.911, 495.694 331.436 C 496.626 331.794, 502.588 332.058, 508.944 332.024 C 528.401 331.918, 588.173 333.046, 593.858 333.625 C 599.157 334.165, 599.209 334.203, 598.632 337.089 C 597.701 341.746, 590.389 355.695, 583.478 366 C 567.845 389.310, 538.933 414.145, 510.500 428.690 C 481.273 443.640, 445.792 448.875, 414 442.926 C 394.538 439.284, 372.575 432.063, 360 425.172 C 345.423 417.184, 339.410 413.566, 338.700 412.360 C 338.260 411.612, 337.326 411, 336.625 411 C 335.923 411, 334.292 409.875, 333 408.500 C 331.708 407.125, 330.117 406, 329.464 406 C 327.861 406, 307.039 384.411, 299.191 374.612 C 273.139 342.084, 259.147 308.505, 254.931 268.393 C 252.483 245.104, 256.624 210.203, 264.761 185.552 C 268.932 172.916, 280.229 149.473, 285.435 142.653 C 287.396 140.084, 289 137.616, 289 137.168 C 289 135.717, 313.915 110.240, 320.302 105.160 C 356.580 76.305, 399.273 64.067, 450.479 67.845 C 461.137 68.631, 464.638 68.594, 465.214 67.688 C 465.629 67.035, 465.976 63.306, 465.985 59.402 L 466 52.303 457.750 51.150 C 446.664 49.601, 412.744 49.881, 401.500 51.615 M 465 122.798 C 465 144.178, 465.299 192.137, 465.665 229.375 L 466.329 297.081 473.415 296.790 L 480.500 296.500 480.098 251.750 C 479.707 208.303, 479.751 206.999, 481.598 206.958 C 489.295 206.786, 518.485 207.152, 518.756 207.423 C 518.943 207.609, 522.020 222.778, 525.595 241.131 C 529.170 259.484, 533.104 279.675, 534.337 286 L 536.580 297.500 544.790 297.790 C 549.306 297.950, 553 297.923, 553 297.731 C 553 297.538, 551.167 288.632, 548.927 277.940 C 544.163 255.199, 534 204.229, 534 203.077 C 534 202.641, 536.712 200.611, 540.026 198.565 C 554.113 189.870, 563.273 169.931, 563.255 148 C 563.240 129.249, 558.147 114.174, 547.970 102.756 C 536.836 90.264, 527.130 86.335, 505.402 85.527 C 497.206 85.222, 484.762 84.737, 477.750 84.450 L 465 83.926 465 122.798 M 766.133 167.750 C 766.207 213.813, 766.544 262.075, 766.883 275 L 767.500 298.500 777.500 298.232 C 798.670 297.664, 815.832 289.637, 828.365 274.443 C 837.910 262.871, 842.883 251.044, 847.263 229.500 C 849.243 219.764, 849.498 215.512, 849.484 192.500 C 849.470 169.957, 849.171 164.888, 847.240 154.376 C 843.446 133.722, 838.673 120.902, 830.533 109.493 C 819.290 93.739, 797.453 84, 773.369 84 L 766 84 766.133 167.750 M 739.825 159.250 C 740.066 207.583, 739.854 232.160, 739.201 231.500 C 738.657 230.950, 730.356 212.950, 720.754 191.500 C 685.833 113.483, 674.487 89, 673.256 89 C 671.797 89, 671.545 155.785, 672.665 245.790 L 673.328 299.081 680.414 298.790 L 687.500 298.500 687.136 228.500 C 686.884 180.013, 687.092 158.807, 687.813 159.500 C 688.385 160.050, 690.630 164.550, 692.800 169.500 C 694.970 174.450, 701.706 189.525, 707.769 203 C 713.832 216.475, 723.949 238.975, 730.251 253 C 749.876 296.675, 751.466 299.995, 752.750 299.998 C 753.742 299.999, 754 278.251, 754 194.582 C 754 136.602, 753.727 88.452, 753.393 87.582 C 752.924 86.358, 751.276 86, 746.123 86 L 739.459 86 739.825 159.250 M 611.507 90.250 C 611.271 90.938, 602.765 124.575, 592.606 165 C 582.447 205.425, 570.955 250.925, 567.068 266.110 C 563.181 281.296, 560 294.683, 560 295.860 C 560 297.839, 560.517 298, 566.878 298 C 571.183 298, 574.127 297.532, 574.749 296.750 C 575.296 296.063, 578.089 285.600, 580.957 273.500 C 583.824 261.400, 586.410 250.643, 586.702 249.596 C 587.208 247.781, 588.101 247.722, 605.866 248.343 C 616.115 248.701, 628.100 248.999, 632.500 249.004 L 640.500 249.013 645.760 270.257 C 648.654 281.940, 651.487 293.188, 652.057 295.250 L 653.094 299 660.547 299 C 667.483 299, 668 298.852, 668 296.872 C 668 295.143, 659.586 261.824, 651.492 231.500 C 648.695 221.021, 637.001 176.157, 632.335 158 C 629.862 148.375, 626.297 134.650, 624.414 127.500 C 622.531 120.350, 619.579 108.763, 617.854 101.750 C 615.710 93.037, 614.277 89, 613.327 89 C 612.563 89, 611.744 89.563, 611.507 90.250 M 480.240 145.312 L 480.500 189.500 500.405 189.772 L 520.310 190.043 526.405 187.146 C 541.048 180.187, 549 165.556, 549 145.574 C 549 131.485, 544.364 120.330, 534.846 111.518 C 526.408 103.706, 521.226 102.309, 498.240 101.649 L 479.979 101.125 480.240 145.312 M 780.867 101.716 C 780.329 104.891, 781.344 279.666, 781.904 280.260 C 783.212 281.648, 793.398 279.053, 800.700 275.471 C 819.160 266.418, 830.434 246.361, 834.501 215.334 C 838.393 185.645, 834.210 149.733, 824.555 129.943 C 818.233 116.987, 809.473 108.827, 797 104.278 C 790.904 102.055, 781.074 100.494, 780.867 101.716 M 612.610 144 C 610.413 150.278, 591.991 230.325, 592.602 230.936 C 592.912 231.246, 602.578 231.658, 614.083 231.851 C 631.982 232.151, 635 231.990, 635 230.732 C 635 229.376, 631.512 214.619, 619.345 164.500 C 616.808 154.050, 614.373 144.825, 613.934 144 C 613.223 142.667, 613.076 142.667, 612.610 144 M 232.500 513.460 C 215.251 515.595, 201.118 518.827, 185.500 524.210 C 178.200 526.726, 168.763 530.822, 168.034 531.791 C 167.740 532.181, 164.575 534.041, 161 535.925 C 110.568 562.498, 75.548 606.768, 58.545 665.443 C 50.826 692.079, 48.016 726.584, 51.447 752.601 C 58.604 806.863, 79.146 849.764, 115.922 887.250 C 122.801 894.263, 128.815 900, 129.286 900 C 129.756 900, 132.276 901.800, 134.885 904 C 137.494 906.200, 139.890 908, 140.209 908 C 140.528 908, 142.119 909.243, 143.746 910.763 C 145.372 912.282, 148.451 914.420, 150.586 915.513 C 152.722 916.606, 155.108 918.100, 155.889 918.833 C 156.669 919.566, 164.101 923.487, 172.404 927.548 C 217.206 949.458, 263.692 955.376, 309.849 945.044 C 337.074 938.950, 367.289 924.763, 390.500 907.176 C 404.454 896.604, 429 869.983, 429 865.423 C 429 863.826, 416.859 858, 413.529 858 C 412.143 858, 410.092 859.566, 407.961 862.250 C 398.746 873.860, 382.158 889.065, 368.840 898.109 C 361.378 903.176, 343.218 912.599, 333.500 916.447 C 287.115 934.811, 242.270 934.463, 194.741 915.370 C 183.969 911.043, 168.927 903.351, 161.637 898.441 C 158.826 896.549, 156.135 895, 155.657 895 C 153.621 895, 137.664 881.349, 127.430 870.853 C 99.502 842.210, 84.334 815.031, 74.493 776 C 69.882 757.716, 68.697 745.505, 69.300 722.500 C 69.868 700.861, 70.975 692.334, 75.491 674.847 C 82.741 646.771, 97.959 617.329, 116.291 595.909 C 123.149 587.896, 144.877 568.001, 148.101 566.782 C 149.145 566.387, 150 565.600, 150 565.032 C 150 564.465, 150.442 564, 150.982 564 C 151.523 564, 154.904 562.201, 158.497 560.002 C 185.702 543.351, 214.241 534.573, 248.485 532.323 C 263.559 531.333, 290.728 535.050, 308 540.464 C 338.847 550.135, 365.311 565.848, 388.788 588.431 L 399.112 598.361 402.806 597.041 C 411.078 594.085, 417 591.031, 417 589.723 C 417 587.451, 393.294 564.931, 382.309 556.768 C 356.878 537.868, 330.205 524.788, 303.500 518.121 C 282.449 512.865, 252.959 510.929, 232.500 513.460 M 494.526 575.750 C 490.199 600.362, 485.438 627.475, 483.945 636 C 482.453 644.525, 479.130 663.200, 476.561 677.500 C 473.992 691.800, 470.095 713.625, 467.900 726 C 465.706 738.375, 461.270 763.125, 458.043 781 C 454.815 798.875, 449.438 828.800, 446.093 847.500 C 442.748 866.200, 437.534 895.275, 434.506 912.110 C 431.478 928.946, 429 943.848, 429 945.226 C 429 947.621, 429.318 947.754, 436.224 948.248 C 440.198 948.532, 443.910 948.588, 444.474 948.371 C 445.038 948.154, 447.899 934.595, 450.831 918.239 C 453.764 901.882, 458.826 873.796, 462.081 855.824 C 465.337 837.852, 468 822.884, 468 822.561 C 468 822.239, 484.313 822.093, 504.250 822.238 L 540.500 822.500 541.278 826 C 541.706 827.925, 545.211 847.050, 549.067 868.500 C 552.923 889.950, 557.925 917.063, 560.181 928.750 L 564.284 950 572.688 950 L 581.091 950 580.551 946.750 C 580.254 944.962, 577.957 932.250, 575.447 918.500 C 572.936 904.750, 564.635 859.300, 557.001 817.500 C 535.598 700.309, 516.507 595.378, 510.972 564.500 C 504.595 528.929, 505.050 531, 503.617 531 C 502.787 531, 499.860 545.410, 494.526 575.750 M 602.434 533.407 C 602.102 534.730, 601.981 628.592, 602.165 741.987 C 602.498 946.730, 602.514 948.172, 604.498 949.622 C 605.855 950.614, 608.419 950.989, 612.498 950.791 L 618.500 950.500 619 887.500 L 619.500 824.500 647.750 824.882 L 676 825.263 676 816.632 L 676 808 647.500 808 L 619 808 619 750.165 C 619 718.356, 618.701 659.856, 618.336 620.165 L 617.671 548 662.336 548 L 707 548 707 540.162 L 707 532.325 668.750 531.664 C 647.712 531.300, 624.321 531.002, 616.769 531.001 C 603.098 531, 603.035 531.011, 602.434 533.407 M 734.250 531.744 L 726 532.081 726 741.878 L 726 951.674 769.664 952.337 C 793.679 952.702, 820.904 953, 830.164 953 L 847 953 847 944.500 L 847 936 831.250 935.999 C 822.587 935.998, 798.962 935.700, 778.750 935.336 L 742 934.676 742 879.718 L 742 824.761 773.750 825.130 L 805.500 825.500 805.788 817.409 L 806.076 809.318 787.878 808.659 C 777.869 808.297, 763.518 808, 755.988 808 L 742.298 808 741.646 744.750 C 741.288 709.962, 741.109 651.575, 741.248 615 L 741.500 548.500 786.500 547.888 C 811.250 547.552, 834.987 547.214, 839.250 547.138 L 847 547 847 539 L 847 531 794.750 531.204 C 766.013 531.315, 738.788 531.559, 734.250 531.744 M 502.615 619.105 C 502.342 620.422, 500.975 629.150, 499.577 638.500 C 496.661 657.999, 492.597 683.872, 479.040 769.233 C 476.268 786.687, 474 802.099, 474 803.483 L 474 806 504.500 806 C 523.948 806, 535 805.641, 535 805.011 C 535 804.087, 533.334 793.694, 524.421 739 C 522.494 727.175, 519.345 707.825, 517.424 696 C 507.076 632.328, 504.683 618.420, 503.934 617.605 C 503.477 617.109, 502.890 617.777, 502.615 619.105 M 474.384 1024.731 C 472.120 1031.754, 461.207 1064.966, 450.134 1098.536 C 439.060 1132.105, 430 1160.568, 430 1161.786 C 430 1163.897, 430.394 1164, 438.452 1164 L 446.905 1164 453.648 1142.980 L 460.391 1121.959 479.849 1122.230 L 499.308 1122.500 506.404 1143.500 L 513.500 1164.500 522.250 1164.789 C 527.063 1164.948, 531.001 1164.723, 531.002 1164.289 C 531.004 1163.503, 513.941 1111.166, 492.600 1046.502 C 485.284 1024.333, 480.879 1012.410, 479.940 1012.234 C 478.909 1012.040, 477.332 1015.587, 474.384 1024.731 M 541.142 1055.750 C 541.219 1079.263, 541.557 1113.800, 541.892 1132.500 L 542.500 1166.500 550 1166.500 L 557.500 1166.500 558 1121.500 L 558.500 1076.500 565.388 1089.500 C 569.176 1096.650, 580.019 1116.900, 589.483 1134.500 C 598.947 1152.100, 608.390 1169.763, 610.469 1173.750 C 612.547 1177.737, 614.867 1181, 615.624 1181 C 616.772 1181, 617 1173.269, 616.998 1134.250 C 616.997 1108.537, 616.700 1073.662, 616.337 1056.750 L 615.677 1026 607.839 1026 L 600 1026 600 1071 C 600 1095.750, 599.633 1116, 599.185 1116 C 598.737 1116, 597.573 1114.313, 596.599 1112.250 C 589.372 1096.953, 543.521 1013, 542.394 1013 C 541.222 1013, 541.023 1019.797, 541.142 1055.750 M 53.777 1089.099 C 53.625 1126.719, 53.655 1158.248, 53.844 1159.163 C 54.345 1161.586, 63.821 1162.423, 74.084 1160.950 C 101.796 1156.974, 120.589 1140.588, 129.116 1112.965 C 131.012 1106.823, 131.425 1103.196, 131.446 1092.500 C 131.476 1077.587, 129.829 1069.749, 124.305 1058.507 C 112.978 1035.458, 93.004 1022.982, 64.777 1021.327 L 54.054 1020.698 53.777 1089.099 M 140 1092.500 L 140 1162 154.338 1162 C 162.224 1162, 179.549 1162.297, 192.838 1162.660 L 217 1163.320 217 1154.175 L 217 1145.030 187.750 1144.765 L 158.500 1144.500 158.219 1132.250 L 157.938 1120 166.969 1120 L 176 1120 176 1111.038 L 176 1102.075 166.750 1101.788 L 157.500 1101.500 157.220 1073 C 157.065 1057.325, 157.200 1043.433, 157.519 1042.128 L 158.099 1039.757 187.550 1040.493 L 217 1041.229 217 1032.115 L 217 1023 178.500 1023 L 140 1023 140 1092.500 M 272 1093.500 L 272 1163 280.500 1163 L 289 1163 289 1142 L 289 1121 298 1121 L 307 1121 307 1112 L 307 1103 298 1103 L 289 1103 289 1072.500 L 289 1042 306.500 1042 L 324 1042 324 1033 L 324 1024 298 1024 L 272 1024 272 1093.500 M 328.797 1093.181 C 328.432 1154.006, 328.557 1161.641, 329.938 1162.789 C 330.963 1163.641, 333.863 1163.980, 338.494 1163.789 L 345.500 1163.500 345.770 1142.250 L 346.040 1121 361.397 1121 C 374.424 1121, 376.963 1121.250, 378.128 1122.644 C 378.882 1123.548, 384.293 1133.111, 390.152 1143.894 L 400.804 1163.500 409.902 1163.788 C 417.588 1164.030, 419 1163.834, 419 1162.520 C 419 1161.665, 414.783 1153.211, 409.628 1143.733 C 404.474 1134.255, 399.085 1124.174, 397.653 1121.331 L 395.048 1116.162 399.425 1113.597 C 405.477 1110.050, 411.389 1103.015, 415.774 1094.142 C 419.231 1087.149, 419.505 1085.917, 419.850 1075.861 C 420.150 1067.069, 419.837 1063.825, 418.151 1058.289 C 414.148 1045.145, 405.444 1035.040, 393 1029.087 L 385.500 1025.500 357.353 1025.181 L 329.206 1024.862 328.797 1093.181 M 684.322 1028.034 C 653.352 1033.589, 630.865 1060.141, 629.303 1093 C 628.678 1106.148, 630.501 1115.387, 635.971 1126.793 C 643.333 1142.141, 653.270 1152.713, 667.135 1159.949 C 677.120 1165.159, 685.326 1167.239, 696 1167.265 C 727.526 1167.342, 755.395 1143.550, 760.492 1112.210 L 761.189 1107.919 752.402 1108.210 L 743.614 1108.500 741.974 1114 C 739.850 1121.122, 737.597 1125.449, 733.125 1131 C 722.538 1144.142, 710.212 1149.650, 693.362 1148.768 C 685.020 1148.332, 683.071 1147.845, 676.327 1144.512 C 658.271 1135.588, 646.706 1116.843, 646.706 1096.500 C 646.706 1076.047, 657.941 1057.704, 675.646 1049.250 C 683.252 1045.618, 683.847 1045.500, 694.500 1045.505 C 704.398 1045.509, 706.088 1045.784, 711.371 1048.255 C 714.600 1049.765, 717.765 1051, 718.405 1051 C 720.140 1051, 730 1040.683, 730 1038.867 C 730 1037.068, 718.763 1031.559, 710.689 1029.398 C 703.802 1027.556, 690.753 1026.880, 684.322 1028.034 M 769 1098.194 L 769 1167.691 781.750 1168.342 C 788.763 1168.699, 806.087 1168.994, 820.250 1168.996 L 846 1169 846 1160.617 C 846 1152.768, 845.856 1152.195, 843.750 1151.630 C 842.513 1151.299, 829.013 1151.021, 813.750 1151.014 L 786 1151 786 1138.500 L 786 1126 795 1126 L 804 1126 804 1117 L 804 1108 795 1108 L 786 1108 786 1077.500 L 786 1047 815.500 1047 L 845 1047 845 1038.500 L 845 1030 817.656 1030 C 802.616 1030, 785.516 1029.707, 779.656 1029.348 L 769 1028.696 769 1098.194 M 70 1091.639 L 70 1143.279 75.135 1142.670 C 82.592 1141.787, 91.647 1137.147, 98.755 1130.567 C 127.266 1104.170, 115.802 1051.056, 79.500 1041.359 C 76.750 1040.625, 73.487 1040.018, 72.250 1040.012 L 70 1040 70 1091.639 M 346.235 1072.670 L 346.500 1103.500 361.902 1103.777 C 381.248 1104.125, 385.597 1103.049, 393.295 1096.014 C 400.254 1089.654, 403.317 1082.973, 403.390 1074 C 403.461 1065.200, 400.888 1058.204, 395.292 1051.980 C 387.393 1043.194, 385.375 1042.557, 364.235 1042.173 L 345.971 1041.841 346.235 1072.670 M 478.551 1065.750 C 478.185 1067.263, 475.437 1076.048, 472.443 1085.273 C 469.449 1094.498, 467 1102.485, 467 1103.023 C 467 1103.609, 472.243 1104, 480.117 1104 C 492.125 1104, 493.193 1103.852, 492.752 1102.250 C 490.193 1092.953, 480.355 1063.005, 479.858 1063.003 C 479.506 1063.001, 478.917 1064.237, 478.551 1065.750" stroke="none" fill="#ffffff" fill-rule="evenodd"/><path d="M 401.500 51.615 C 360.211 57.981, 324.809 75.807, 293.750 105.872 C 290.587 108.933, 288 111.863, 288 112.383 C 288 112.903, 291.062 110.442, 294.804 106.914 C 305.844 96.508, 315.981 89, 318.991 89 C 320.096 89, 321 88.550, 321 88 C 321 87.450, 321.675 87, 322.500 87 C 323.325 87, 324 86.550, 324 86 C 324 85.450, 324.675 85, 325.500 85 C 327.579 85, 327.523 92.334, 325.429 94.429 C 323.437 96.420, 321 96.460, 321 94.500 C 321 93.675, 320.325 93, 319.500 93 C 318.667 93, 318 93.889, 318 95 C 318 96.111, 318.667 97, 319.500 97 C 320.325 97, 321 97.675, 321 98.500 C 321 99.333, 320.111 100, 319 100 C 317.444 100, 317 100.667, 317 103 C 317 104.650, 316.562 106, 316.026 106 C 314.255 106, 298.040 123.420, 297.122 126.310 C 296.913 126.964, 301.638 122.745, 307.622 116.933 C 326.905 98.202, 343.566 87.443, 367.337 78.372 C 391.602 69.112, 419.599 65.567, 450.479 67.845 C 461.137 68.631, 464.638 68.594, 465.214 67.688 C 465.629 67.035, 465.976 63.306, 465.985 59.402 L 466 52.303 457.750 51.150 C 446.664 49.601, 412.744 49.881, 401.500 51.615 M 521 318.091 C 521 318.591, 522.575 319, 524.500 319 L 528 319 528 323.872 L 528 328.744 524 329.384 C 521.800 329.736, 520 330.398, 520 330.856 C 520 331.973, 543.614 332.989, 570 333.007 C 581.825 333.015, 593.231 333.308, 595.346 333.657 C 598.945 334.252, 599.155 334.476, 598.620 337.150 C 597.700 341.752, 590.354 355.748, 583.478 366 C 564.116 394.869, 524.006 425.943, 492.500 436.481 C 471.245 443.591, 447.821 446.761, 429.843 444.963 C 400.158 441.993, 376.389 434.534, 351.166 420.276 C 341.026 414.544, 341 414.533, 341 416 C 341 416.550, 341.675 417, 342.500 417 C 343.325 417, 344 417.362, 344 417.804 C 344 418.245, 346.363 419.876, 349.250 421.427 C 359.284 426.816, 363.515 429.241, 366.154 431.115 C 367.614 432.152, 369.308 433, 369.918 433 C 370.528 433, 372.029 433.562, 373.253 434.250 C 378.450 437.169, 381.212 442.812, 376.889 441.681 C 375.349 441.278, 374.638 441.670, 374.256 443.130 C 373.800 444.873, 373.202 445.043, 369.616 444.447 C 367.352 444.071, 364.285 443.142, 362.800 442.382 C 361.314 441.622, 359.389 441, 358.521 441 C 357.653 441, 354.256 439.644, 350.971 437.986 C 347.687 436.328, 345 435.423, 345 435.976 C 345 437.163, 359.932 444.802, 370.323 448.930 C 381.163 453.236, 396.948 457.620, 410.500 460.089 C 424.966 462.725, 452.503 463.230, 466 461.108 C 505.100 454.960, 537.825 437.618, 570.868 405.537 C 594.636 382.460, 608.287 361.467, 617.465 333.873 C 621.655 321.277, 621.829 319.208, 618.750 318.578 C 614.227 317.653, 521 317.188, 521 318.091 M 330 426.753 C 330 427.167, 332.700 429.193, 336 431.256 C 341.552 434.726, 343.073 435.074, 341.235 432.452 C 340.480 431.375, 331.597 426, 330.572 426 C 330.257 426, 330 426.339, 330 426.753 M 402 451.500 C 402 452.333, 402.889 453, 404 453 C 405.111 453, 406 452.333, 406 451.500 C 406 450.667, 405.111 450, 404 450 C 402.889 450, 402 450.667, 402 451.500 M 232.500 513.460 C 216.002 515.502, 202.422 518.543, 187.028 523.645 C 178.859 526.352, 168 531.174, 168 532.093 C 168 533.229, 168.570 533.233, 170.764 532.114 C 171.719 531.626, 175.546 530.051, 179.270 528.614 C 186.973 525.639, 192 525.200, 192 527.500 C 192 530.414, 195.725 533.005, 198.979 532.354 C 201.582 531.834, 202 532.044, 202 533.875 C 202 535.475, 201.382 536, 199.500 536 C 197.944 536, 197 536.567, 197 537.500 C 197 538.433, 196.056 539, 194.500 539 C 193.125 539, 192 539.410, 192 539.911 C 192 540.412, 189.975 541.762, 187.500 542.911 C 185.025 544.060, 181.058 545.900, 178.684 547 C 176.311 548.100, 173.991 549, 173.529 549 C 173.067 549, 171.296 550.060, 169.594 551.356 C 167.892 552.651, 164.524 554.718, 162.109 555.948 C 157.745 558.171, 152.887 562, 154.431 562 C 154.875 562, 157.772 560.474, 160.869 558.609 C 186.747 543.024, 215.105 534.516, 248.485 532.323 C 263.559 531.333, 290.728 535.050, 308 540.464 C 338.847 550.135, 365.311 565.848, 388.788 588.431 L 399.112 598.361 402.806 597.041 C 411.078 594.085, 417 591.031, 417 589.723 C 417 587.451, 393.294 564.931, 382.309 556.768 C 356.878 537.868, 330.205 524.788, 303.500 518.121 C 282.449 512.865, 252.959 510.929, 232.500 513.460 M 199 526.927 C 199 528.358, 199.642 529, 201.073 529 C 203.636 529, 203.345 525.690, 200.739 525.188 C 199.539 524.957, 199 525.496, 199 526.927 M 408.402 861.750 C 398.243 874.320, 382.318 888.956, 368.840 898.109 C 361.378 903.176, 343.218 912.599, 333.500 916.447 C 287.115 934.811, 242.270 934.463, 194.741 915.370 C 183.504 910.856, 168.653 903.197, 160.809 897.870 C 157.614 895.701, 155 894.382, 155 894.940 C 155 895.498, 156.238 896.741, 157.750 897.704 C 159.262 898.666, 160.725 899.689, 161 899.977 C 161.492 900.492, 162.735 901.222, 169.887 905.196 C 171.874 906.300, 174.175 907.797, 175 908.524 C 175.825 909.250, 177.738 910.153, 179.250 910.530 C 180.762 910.908, 182 911.546, 182 911.948 C 182 912.351, 183.806 913.276, 186.014 914.005 C 188.222 914.733, 190.503 915.901, 191.083 916.601 C 191.664 917.300, 193.345 918.147, 194.819 918.483 C 196.294 918.819, 198.338 919.723, 199.363 920.490 C 201.069 921.768, 201.111 922.241, 199.863 926.113 C 198.700 929.719, 197.882 930.563, 194.292 931.861 C 190.918 933.081, 189.580 933.147, 187.542 932.191 C 186.144 931.536, 183.988 930.568, 182.750 930.040 C 180.860 929.234, 158.073 918.413, 155.750 917.219 C 155.338 917.007, 155 917.303, 155 917.876 C 155 919.664, 186.893 934.753, 199.582 938.967 C 229.299 948.839, 260.267 952.162, 289.038 948.568 C 313.031 945.571, 332.438 939.776, 354.500 929.022 C 377.645 917.739, 393.575 906.329, 410.576 888.856 C 419.676 879.502, 430.810 865.472, 429.871 864.541 C 429.386 864.060, 413.317 857, 412.708 857 C 412.451 857, 410.513 859.138, 408.402 861.750 M 142 908.975 C 142 909.966, 151.849 917, 153.237 917 C 153.656 917, 154 916.550, 154 916 C 154 915.450, 153.491 915, 152.869 915 C 152.248 915, 149.548 913.426, 146.869 911.502 C 144.191 909.578, 142 908.441, 142 908.975" stroke="none" fill="#e78520" fill-rule="evenodd"/><path d="M 324.829 84.903 C 324.108 86.056, 322.952 87, 322.259 87 C 321.567 87, 321 87.450, 321 88 C 321 88.550, 320.096 89, 318.991 89 C 317.105 89, 313.153 91.492, 305.032 97.804 C 297.714 103.492, 281.516 119.806, 276.539 126.500 C 251.613 160.027, 238.035 203.787, 238.008 250.678 C 237.981 297.555, 254.510 343.663, 285.786 383.953 C 292.787 392.972, 314.681 416, 316.254 416 C 316.763 416, 319.704 418.250, 322.789 421 C 325.875 423.750, 329.017 426, 329.772 426 C 331.493 426, 340.155 430.975, 341.506 432.739 C 342.718 434.322, 358.866 441.974, 361.027 441.989 C 361.868 441.995, 363.443 442.608, 364.527 443.351 C 365.612 444.094, 368.637 444.985, 371.250 445.332 C 375.062 445.837, 376 445.669, 376 444.481 C 376 443.666, 376.482 443, 377.071 443 C 378.196 443, 381 440.553, 381 439.571 C 381 439.257, 380.490 439, 379.867 439 C 379.244 439, 378.002 438.213, 377.107 437.250 C 375.188 435.187, 371.488 433, 369.918 433 C 369.308 433, 367.614 432.152, 366.154 431.115 C 363.515 429.241, 359.284 426.816, 349.250 421.427 C 346.363 419.876, 344 418.245, 344 417.804 C 344 417.362, 343.325 417, 342.500 417 C 341.675 417, 341 416.325, 341 415.500 C 341 414.675, 340.336 414, 339.524 414 C 338.713 414, 336.615 412.425, 334.864 410.500 C 333.112 408.575, 331.140 407, 330.481 407 C 328.859 407, 307.023 384.400, 299.191 374.616 C 273.127 342.055, 259.147 308.504, 254.931 268.393 C 252.492 245.190, 256.625 210.204, 264.691 185.762 C 268.633 173.818, 278.772 152.370, 284.362 144.150 C 286.363 141.207, 288 138.464, 288 138.054 C 288 137.645, 288.954 136.453, 290.120 135.405 C 291.286 134.357, 293.697 131.250, 295.477 128.500 C 300.466 120.796, 313.967 106, 316.007 106 C 316.532 106, 317.244 104.875, 317.589 103.500 C 317.934 102.125, 318.650 101, 319.180 101 C 320.347 101, 322.993 98.463, 323.017 97.321 C 323.027 96.870, 324.065 95.524, 325.324 94.331 C 327.023 92.721, 327.587 91.121, 327.511 88.120 C 327.387 83.154, 326.549 82.149, 324.829 84.903 M 318 95 C 318 96.111, 318.667 97, 319.500 97 C 320.333 97, 321 96.111, 321 95 C 321 93.889, 320.333 93, 319.500 93 C 318.667 93, 318 93.889, 318 95 M 494 323.893 C 494 329.256, 494.351 330.921, 495.582 331.393 C 498.038 332.336, 518.815 332.108, 519.419 331.131 C 519.714 330.654, 521.718 329.981, 523.872 329.636 C 527.573 329.045, 527.810 328.793, 528.165 325.067 C 528.685 319.614, 528.312 319, 524.476 319 C 522.629 319, 520.840 318.550, 520.500 318 C 520.139 317.417, 514.490 317, 506.941 317 L 494 317 494 323.893 M 382.250 446.800 C 376.258 447.244, 376.934 448.967, 383 448.711 C 385.749 448.595, 387.999 448.189, 388 447.809 C 388 446.687, 386.749 446.467, 382.250 446.800 M 401.750 449.748 C 399.269 450.313, 399.581 451.488, 402.575 452.852 C 405.160 454.030, 407 453.665, 407 451.976 C 407 450.653, 403.779 449.286, 401.750 449.748 M 199 527.531 C 199 532.945, 197.170 534.170, 193.929 530.929 C 192.102 529.102, 191.911 528.372, 192.860 526.852 C 193.873 525.231, 193.698 525, 191.458 525 C 189.159 525, 175.147 529.802, 170.764 532.093 C 169.809 532.592, 168.221 533, 167.236 533 C 166.251 533, 164.557 533.610, 163.473 534.355 C 162.388 535.100, 158.800 537.181, 155.500 538.980 C 152.200 540.779, 148.068 543.319, 146.317 544.625 C 144.566 545.931, 142.856 547, 142.516 547 C 141.252 547, 125.219 559.556, 117.152 566.863 C 91.251 590.322, 69.912 626.215, 58.545 665.443 C 50.826 692.079, 48.016 726.584, 51.447 752.601 C 58.520 806.222, 78.934 849.247, 114.854 886.238 C 121.136 892.707, 126.704 898, 127.228 898 C 127.751 898, 130.704 900.250, 133.789 903 C 136.875 905.750, 139.983 908, 140.697 908 C 141.411 908, 144.188 909.575, 146.867 911.500 C 149.547 913.425, 152.210 915, 152.786 915 C 153.362 915, 153.988 915.464, 154.177 916.031 C 154.451 916.852, 172.807 925.838, 182.500 929.895 C 183.600 930.356, 185.733 931.316, 187.240 932.030 C 189.490 933.095, 190.694 933.091, 193.977 932.008 C 198.346 930.566, 200.717 927.763, 201.193 923.480 C 201.468 921, 201.024 920.550, 196.875 919.108 C 194.331 918.224, 191.631 916.995, 190.875 916.377 C 190.119 915.759, 187.813 914.656, 185.750 913.926 C 183.688 913.196, 182 912.287, 182 911.908 C 182 911.528, 180.762 910.908, 179.250 910.530 C 177.738 910.153, 175.825 909.250, 175 908.524 C 174.175 907.797, 171.874 906.300, 169.887 905.196 C 160.732 900.109, 160.606 900.026, 155.500 895.752 C 153.300 893.911, 148.575 890.102, 145 887.289 C 136.237 880.394, 117.854 861.438, 109.809 851 C 89.189 824.249, 75.726 791.432, 70.424 755 C 68.372 740.900, 68.924 706.514, 71.418 693.024 C 78.275 655.949, 93.961 621.979, 116.220 596 C 122.461 588.717, 144.412 568.424, 152.500 562.460 C 154.700 560.838, 156.725 559.232, 157 558.890 C 157.275 558.548, 159.525 557.243, 162 555.990 C 164.475 554.737, 167.892 552.651, 169.594 551.356 C 171.296 550.060, 173.067 549, 173.529 549 C 173.991 549, 176.311 548.100, 178.684 547 C 181.058 545.900, 185.025 544.060, 187.500 542.911 C 189.975 541.762, 192 540.412, 192 539.911 C 192 539.410, 193.125 539, 194.500 539 C 196.111 539, 197 538.439, 197 537.421 C 197 536.186, 197.655 535.985, 200 536.500 C 203.369 537.240, 204.003 535.592, 201.750 531.956 C 200.724 530.301, 200.761 529.777, 201.954 529.035 C 203.200 528.259, 203.211 527.764, 202.035 525.565 C 200.008 521.777, 199 522.430, 199 527.531" stroke="none" fill="#e26f1e" fill-rule="evenodd"/></svg>